<svg xmlns="http://www.w3.org/2000/svg" xmlns:xlink="http://www.w3.org/1999/xlink" width="40" zoomAndPan="magnify" viewBox="0 0 30 30.000001" height="40" preserveAspectRatio="xMidYMid meet" version="1.0"><defs><g/><clipPath id="id1"><path d="M 4.394531 12.320312 L 9.242188 12.320312 L 9.242188 17.625 L 4.394531 17.625 Z M 4.394531 12.320312 " clip-rule="nonzero"/></clipPath><clipPath id="id2"><path d="M 6 15 L 8 15 L 8 17.625 L 6 17.625 Z M 6 15 " clip-rule="nonzero"/></clipPath></defs><g clip-path="url(#id1)"><path fill="#ff66c4" d="M 4.46875 15.207031 C 4.519531 15.4375 4.601562 15.660156 4.714844 15.867188 C 4.964844 16.328125 5.367188 16.699219 5.84375 16.914062 C 5.929688 16.953125 6.019531 16.988281 6.109375 17.019531 C 6.089844 16.921875 6.066406 16.824219 6.050781 16.726562 C 6.046875 16.695312 6.042969 16.667969 6.039062 16.640625 C 5.984375 16.617188 5.933594 16.59375 5.882812 16.570312 C 5.472656 16.363281 5.136719 16.015625 4.941406 15.601562 C 4.855469 15.425781 4.800781 15.234375 4.769531 15.042969 C 4.738281 14.824219 4.738281 14.601562 4.773438 14.386719 C 4.8125 14.179688 4.875 13.976562 4.972656 13.789062 C 5.085938 13.566406 5.242188 13.363281 5.425781 13.199219 C 5.621094 13.023438 5.84375 12.886719 6.085938 12.796875 C 6.339844 12.699219 6.613281 12.65625 6.882812 12.664062 C 7.152344 12.667969 7.417969 12.726562 7.664062 12.835938 C 7.898438 12.9375 8.117188 13.085938 8.300781 13.269531 C 8.480469 13.445312 8.625 13.652344 8.726562 13.882812 C 8.816406 14.074219 8.875 14.28125 8.898438 14.496094 C 8.921875 14.722656 8.910156 14.953125 8.859375 15.175781 C 8.816406 15.375 8.742188 15.5625 8.644531 15.742188 C 8.425781 16.125 8.085938 16.4375 7.679688 16.621094 C 7.65625 16.632812 7.628906 16.640625 7.605469 16.652344 L 7.589844 16.730469 C 7.574219 16.832031 7.554688 16.929688 7.53125 17.027344 L 7.535156 17.023438 C 7.660156 16.984375 7.785156 16.933594 7.902344 16.878906 C 8.371094 16.648438 8.757812 16.261719 8.992188 15.796875 C 9.097656 15.582031 9.171875 15.355469 9.210938 15.125 C 9.253906 14.875 9.253906 14.617188 9.214844 14.363281 C 9.175781 14.121094 9.101562 13.882812 8.988281 13.664062 C 8.859375 13.40625 8.683594 13.171875 8.46875 12.976562 C 8.25 12.769531 7.988281 12.609375 7.710938 12.5 C 7.417969 12.382812 7.105469 12.328125 6.792969 12.332031 C 6.480469 12.335938 6.167969 12.398438 5.878906 12.519531 C 5.601562 12.636719 5.347656 12.804688 5.148438 13.007812 C 4.941406 13.207031 4.765625 13.449219 4.644531 13.710938 C 4.539062 13.933594 4.46875 14.175781 4.4375 14.421875 C 4.402344 14.683594 4.414062 14.949219 4.46875 15.207031 Z M 4.46875 15.207031 " fill-opacity="1" fill-rule="nonzero"/></g><path fill="#ff66c4" d="M 6.816406 13.976562 L 6.816406 13.980469 C 6.488281 13.980469 6.226562 14.242188 6.226562 14.5625 C 6.226562 14.886719 6.488281 15.148438 6.816406 15.148438 C 7.140625 15.148438 7.402344 14.886719 7.402344 14.5625 C 7.402344 14.238281 7.140625 13.976562 6.816406 13.976562 Z M 6.816406 13.976562 " fill-opacity="1" fill-rule="nonzero"/><path fill="#ff66c4" d="M 7.960938 14.222656 C 8.011719 14.335938 8.046875 14.453125 8.0625 14.578125 C 8.082031 14.714844 8.074219 14.855469 8.046875 14.988281 C 8.023438 15.105469 7.980469 15.222656 7.925781 15.328125 C 7.847656 15.472656 7.746094 15.597656 7.621094 15.695312 C 7.628906 15.722656 7.632812 15.746094 7.636719 15.773438 C 7.648438 15.839844 7.648438 15.910156 7.648438 15.980469 L 7.644531 16.082031 L 7.621094 16.105469 C 7.894531 15.945312 8.117188 15.695312 8.246094 15.40625 C 8.316406 15.265625 8.359375 15.113281 8.378906 14.957031 C 8.402344 14.796875 8.394531 14.636719 8.367188 14.476562 C 8.339844 14.324219 8.289062 14.175781 8.21875 14.035156 C 8.132812 13.867188 8.011719 13.714844 7.871094 13.585938 C 7.726562 13.457031 7.5625 13.355469 7.382812 13.285156 C 7.1875 13.210938 6.972656 13.171875 6.761719 13.175781 C 6.550781 13.183594 6.339844 13.230469 6.144531 13.316406 C 5.972656 13.390625 5.8125 13.5 5.675781 13.636719 C 5.542969 13.773438 5.429688 13.929688 5.351562 14.101562 C 5.289062 14.242188 5.246094 14.394531 5.226562 14.550781 C 5.203125 14.722656 5.210938 14.898438 5.246094 15.066406 C 5.277344 15.21875 5.328125 15.367188 5.40625 15.5 C 5.535156 15.738281 5.730469 15.945312 5.964844 16.085938 L 5.964844 15.996094 C 5.964844 15.921875 5.960938 15.855469 5.972656 15.785156 L 5.992188 15.695312 C 5.851562 15.574219 5.738281 15.425781 5.664062 15.253906 C 5.613281 15.144531 5.578125 15.023438 5.5625 14.902344 C 5.546875 14.777344 5.550781 14.648438 5.574219 14.519531 C 5.597656 14.398438 5.636719 14.28125 5.695312 14.171875 C 5.761719 14.039062 5.851562 13.917969 5.96875 13.816406 C 6.082031 13.714844 6.210938 13.632812 6.351562 13.578125 C 6.507812 13.519531 6.679688 13.488281 6.84375 13.492188 C 7.011719 13.496094 7.179688 13.535156 7.332031 13.601562 C 7.472656 13.664062 7.59375 13.75 7.707031 13.855469 C 7.8125 13.960938 7.898438 14.085938 7.960938 14.222656 Z M 7.960938 14.222656 " fill-opacity="1" fill-rule="nonzero"/><g clip-path="url(#id2)"><path fill="#ff66c4" d="M 6.816406 15.320312 C 6.492188 15.320312 6.230469 15.578125 6.230469 15.898438 C 6.230469 17.613281 6.816406 17.613281 6.816406 17.613281 C 6.816406 17.613281 7.398438 17.613281 7.398438 15.898438 C 7.398438 15.578125 7.136719 15.320312 6.816406 15.320312 Z M 6.816406 15.320312 " fill-opacity="1" fill-rule="nonzero"/></g><g fill="#ff66c4" fill-opacity="1"><g transform="translate(1.075114, 16.715647)"><g><path d="M 1.609375 -4 C 2.128906 -4 2.507812 -3.894531 2.75 -3.6875 C 2.988281 -3.488281 3.109375 -3.203125 3.109375 -2.828125 C 3.109375 -2.609375 3.054688 -2.398438 2.953125 -2.203125 C 2.859375 -2.015625 2.691406 -1.859375 2.453125 -1.734375 C 2.222656 -1.617188 1.910156 -1.5625 1.515625 -1.5625 L 1.046875 -1.5625 L 1.046875 0 L 0.546875 0 L 0.546875 -4 Z M 1.5625 -3.578125 L 1.046875 -3.578125 L 1.046875 -1.984375 L 1.453125 -1.984375 C 1.835938 -1.984375 2.117188 -2.046875 2.296875 -2.171875 C 2.484375 -2.296875 2.578125 -2.503906 2.578125 -2.796875 C 2.578125 -3.054688 2.492188 -3.25 2.328125 -3.375 C 2.171875 -3.507812 1.914062 -3.578125 1.5625 -3.578125 Z M 1.5625 -3.578125 "/></g></g></g><g fill="#ff66c4" fill-opacity="1"><g transform="translate(5.056669, 16.715647)"><g/></g></g><g fill="#ff66c4" fill-opacity="1"><g transform="translate(7.105502, 16.715647)"><g/></g></g><g fill="#ff66c4" fill-opacity="1"><g transform="translate(9.154215, 16.715647)"><g><path d="M 3.75 -2.046875 C 3.75 -1.367188 3.5625 -0.859375 3.1875 -0.515625 C 2.820312 -0.171875 2.3125 0 1.65625 0 L 0.546875 0 L 0.546875 -4 L 1.78125 -4 C 2.175781 -4 2.519531 -3.925781 2.8125 -3.78125 C 3.113281 -3.632812 3.34375 -3.414062 3.5 -3.125 C 3.664062 -2.832031 3.75 -2.472656 3.75 -2.046875 Z M 3.21875 -2.03125 C 3.21875 -2.5625 3.082031 -2.953125 2.8125 -3.203125 C 2.550781 -3.453125 2.179688 -3.578125 1.703125 -3.578125 L 1.046875 -3.578125 L 1.046875 -0.4375 L 1.59375 -0.4375 C 2.675781 -0.4375 3.21875 -0.96875 3.21875 -2.03125 Z M 3.21875 -2.03125 "/></g></g></g><g fill="#ff66c4" fill-opacity="1"><g transform="translate(13.836679, 16.715647)"><g><path d="M 2.265625 -3.625 C 1.828125 -3.625 1.484375 -3.476562 1.234375 -3.1875 C 0.992188 -2.894531 0.875 -2.5 0.875 -2 C 0.875 -1.5 0.988281 -1.101562 1.21875 -0.8125 C 1.445312 -0.53125 1.789062 -0.390625 2.25 -0.390625 C 2.425781 -0.390625 2.59375 -0.40625 2.75 -0.4375 C 2.90625 -0.46875 3.0625 -0.503906 3.21875 -0.546875 L 3.21875 -0.109375 C 3.0625 -0.046875 2.90625 -0.00390625 2.75 0.015625 C 2.59375 0.046875 2.40625 0.0625 2.1875 0.0625 C 1.78125 0.0625 1.4375 -0.0195312 1.15625 -0.1875 C 0.882812 -0.363281 0.679688 -0.601562 0.546875 -0.90625 C 0.410156 -1.21875 0.34375 -1.585938 0.34375 -2.015625 C 0.34375 -2.410156 0.414062 -2.765625 0.5625 -3.078125 C 0.707031 -3.390625 0.925781 -3.628906 1.21875 -3.796875 C 1.507812 -3.972656 1.859375 -4.0625 2.265625 -4.0625 C 2.691406 -4.0625 3.0625 -3.984375 3.375 -3.828125 L 3.171875 -3.40625 C 3.046875 -3.457031 2.90625 -3.503906 2.75 -3.546875 C 2.601562 -3.597656 2.441406 -3.625 2.265625 -3.625 Z M 2.265625 -3.625 "/></g></g></g><g fill="#ff66c4" fill-opacity="1"><g transform="translate(17.970277, 16.715647)"><g><path d="M 3.0625 0 L 2.578125 -1.234375 L 0.984375 -1.234375 L 0.515625 0 L 0 0 L 1.5625 -4.015625 L 2.015625 -4.015625 L 3.578125 0 Z M 2.421875 -1.6875 L 1.96875 -2.90625 C 1.957031 -2.925781 1.9375 -2.976562 1.90625 -3.0625 C 1.882812 -3.144531 1.863281 -3.226562 1.84375 -3.3125 C 1.820312 -3.394531 1.800781 -3.457031 1.78125 -3.5 C 1.75 -3.382812 1.71875 -3.269531 1.6875 -3.15625 C 1.65625 -3.050781 1.628906 -2.96875 1.609375 -2.90625 L 1.15625 -1.6875 Z M 2.421875 -1.6875 "/></g></g></g><g fill="#ff66c4" fill-opacity="1"><g transform="translate(22.143078, 16.715647)"><g><path d="M 2.8125 -1.078125 C 2.8125 -0.710938 2.679688 -0.429688 2.421875 -0.234375 C 2.171875 -0.0351562 1.828125 0.0625 1.390625 0.0625 C 1.160156 0.0625 0.953125 0.0390625 0.765625 0 C 0.578125 -0.03125 0.414062 -0.078125 0.28125 -0.140625 L 0.28125 -0.609375 C 0.414062 -0.554688 0.582031 -0.503906 0.78125 -0.453125 C 0.988281 -0.398438 1.195312 -0.375 1.40625 -0.375 C 1.695312 -0.375 1.921875 -0.429688 2.078125 -0.546875 C 2.234375 -0.671875 2.3125 -0.832031 2.3125 -1.03125 C 2.3125 -1.15625 2.28125 -1.257812 2.21875 -1.34375 C 2.164062 -1.4375 2.070312 -1.519531 1.9375 -1.59375 C 1.800781 -1.675781 1.613281 -1.757812 1.375 -1.84375 C 1.03125 -1.96875 0.769531 -2.117188 0.59375 -2.296875 C 0.425781 -2.484375 0.34375 -2.734375 0.34375 -3.046875 C 0.34375 -3.253906 0.394531 -3.429688 0.5 -3.578125 C 0.601562 -3.734375 0.75 -3.851562 0.9375 -3.9375 C 1.132812 -4.019531 1.359375 -4.0625 1.609375 -4.0625 C 1.828125 -4.0625 2.023438 -4.039062 2.203125 -4 C 2.390625 -3.957031 2.5625 -3.90625 2.71875 -3.84375 L 2.5625 -3.40625 C 2.425781 -3.46875 2.273438 -3.519531 2.109375 -3.5625 C 1.941406 -3.601562 1.773438 -3.625 1.609375 -3.625 C 1.359375 -3.625 1.164062 -3.566406 1.03125 -3.453125 C 0.90625 -3.347656 0.84375 -3.207031 0.84375 -3.03125 C 0.84375 -2.894531 0.867188 -2.78125 0.921875 -2.6875 C 0.984375 -2.601562 1.078125 -2.523438 1.203125 -2.453125 C 1.328125 -2.378906 1.5 -2.304688 1.71875 -2.234375 C 1.957031 -2.140625 2.15625 -2.039062 2.3125 -1.9375 C 2.476562 -1.84375 2.601562 -1.726562 2.6875 -1.59375 C 2.769531 -1.457031 2.8125 -1.285156 2.8125 -1.078125 Z M 2.8125 -1.078125 "/></g></g></g><g fill="#ff66c4" fill-opacity="1"><g transform="translate(25.81182, 16.715647)"><g><path d="M 1.8125 0 L 1.3125 0 L 1.3125 -3.5625 L 0.0625 -3.5625 L 0.0625 -4 L 3.0625 -4 L 3.0625 -3.5625 L 1.8125 -3.5625 Z M 1.8125 0 "/></g></g></g></svg>