<svg xmlns="http://www.w3.org/2000/svg" xmlns:xlink="http://www.w3.org/1999/xlink" width="40" zoomAndPan="magnify" viewBox="0 0 30 30.000001" height="40" preserveAspectRatio="xMidYMid meet" version="1.0"><defs><clipPath id="id1"><path d="M 4 1 L 28 1 L 28 25 L 4 25 Z M 4 1 " clip-rule="nonzero"/></clipPath><clipPath id="id2"><path d="M 13.039062 -3.128906 L 32.035156 10.238281 L 18.667969 29.230469 L -0.324219 15.867188 Z M 13.039062 -3.128906 " clip-rule="nonzero"/></clipPath><clipPath id="id3"><path d="M 13.039062 -3.128906 L 32.035156 10.238281 L 18.667969 29.230469 L -0.324219 15.867188 Z M 13.039062 -3.128906 " clip-rule="nonzero"/></clipPath></defs><g clip-path="url(#id1)"><g clip-path="url(#id2)"><g clip-path="url(#id3)"><path fill="#ff66c4" d="M 22.535156 3.554688 C 17.320312 -0.117188 10.027344 1.152344 6.355469 6.367188 C 2.6875 11.585938 3.953125 18.878906 9.171875 22.550781 C 14.390625 26.21875 21.679688 24.953125 25.351562 19.734375 C 29.023438 14.515625 27.804688 7.261719 22.535156 3.554688 Z M 17.246094 20.355469 C 16.859375 20.5 16.460938 20.371094 16.304688 19.976562 C 15.046875 17.027344 12.441406 14.777344 8.578125 13.195312 C 8.175781 13.066406 8.054688 12.617188 8.171875 12.265625 C 8.300781 11.863281 8.746094 11.742188 9.101562 11.859375 C 13.28125 13.589844 16.1875 16.128906 17.589844 19.382812 C 17.820312 19.753906 17.589844 20.160156 17.246094 20.355469 Z M 20.230469 18.535156 C 19.757812 18.695312 19.222656 18.542969 19.0625 18.074219 C 17.609375 14.703125 14.039062 11.488281 10.382812 10.335938 C 9.929688 10.171875 9.640625 9.664062 9.820312 9.222656 C 9.988281 8.769531 10.492188 8.484375 10.933594 8.660156 C 15.121094 10.054688 19.035156 13.585938 20.710938 17.453125 C 20.894531 17.808594 20.703125 18.375 20.230469 18.535156 Z M 22.195312 15.960938 C 20.421875 12.023438 15.484375 8.25 11.945312 7.121094 C 11.363281 6.921875 11.09375 6.3125 11.257812 5.785156 C 11.457031 5.203125 12.0625 4.929688 12.59375 5.09375 C 16.664062 6.464844 22.089844 10.566406 24.128906 15.125 C 24.390625 15.667969 24.128906 16.335938 23.59375 16.585938 C 23.121094 16.742188 22.453125 16.480469 22.195312 15.960938 Z M 22.195312 15.960938 " fill-opacity="1" fill-rule="nonzero"/></g></g></g></svg>