<svg xmlns="http://www.w3.org/2000/svg" xmlns:xlink="http://www.w3.org/1999/xlink" width="300" zoomAndPan="magnify" viewBox="0 0 224.87999 225" height="300" preserveAspectRatio="xMidYMid meet" version="1.0"><defs><g/><clipPath id="id1"><path d="M 0 0.0585938 L 224.761719 0.0585938 L 224.761719 224.9375 L 0 224.9375 Z M 0 0.0585938 " clip-rule="nonzero"/></clipPath><clipPath id="id2"><path d="M 36.054688 26.199219 L 179.976562 26.199219 L 179.976562 65.179688 L 36.054688 65.179688 Z M 36.054688 26.199219 " clip-rule="nonzero"/></clipPath><clipPath id="id3"><path d="M 79.0625 129.699219 L 145.777344 129.699219 L 145.777344 195 L 79.0625 195 Z M 79.0625 129.699219 " clip-rule="nonzero"/></clipPath><clipPath id="id4"><path d="M 104 170 L 121 170 L 121 202.410156 L 104 202.410156 Z M 104 170 " clip-rule="nonzero"/></clipPath></defs><g clip-path="url(#id1)"><path fill="#ffffff" d="M 0 0.0585938 L 224.878906 0.0585938 L 224.878906 232.4375 L 0 232.4375 Z M 0 0.0585938 " fill-opacity="1" fill-rule="nonzero"/><path fill="#ffffff" d="M 0 0.0585938 L 224.878906 0.0585938 L 224.878906 224.941406 L 0 224.941406 Z M 0 0.0585938 " fill-opacity="1" fill-rule="nonzero"/><path fill="#ffffff" d="M 0 0.0585938 L 224.878906 0.0585938 L 224.878906 224.941406 L 0 224.941406 Z M 0 0.0585938 " fill-opacity="1" fill-rule="nonzero"/><path fill="#ffffff" d="M 0 0.0585938 L 224.878906 0.0585938 L 224.878906 224.941406 L 0 224.941406 Z M 0 0.0585938 " fill-opacity="1" fill-rule="nonzero"/></g><g clip-path="url(#id2)"><path fill="#ffde59" d="M 36.054688 26.199219 L 179.976562 26.199219 L 179.976562 65.179688 L 36.054688 65.179688 Z M 36.054688 26.199219 " fill-opacity="1" fill-rule="nonzero"/></g><g clip-path="url(#id3)"><path fill="#000000" d="M 80.089844 169.25 C 80.777344 172.4375 81.878906 175.480469 83.441406 178.335938 C 86.886719 184.652344 92.4375 189.742188 99.003906 192.6875 C 100.195312 193.234375 101.4375 193.691406 102.675781 194.101562 C 102.355469 192.785156 102.078125 191.425781 101.851562 190.101562 C 101.808594 189.691406 101.710938 189.285156 101.664062 188.917969 C 100.929688 188.605469 100.242188 188.285156 99.554688 187.972656 C 93.863281 185.101562 89.273438 180.382812 86.566406 174.707031 C 85.414062 172.25 84.632812 169.660156 84.222656 167.027344 C 83.765625 164.027344 83.765625 160.988281 84.273438 158.03125 C 84.777344 155.171875 85.691406 152.402344 87.023438 149.8125 C 88.585938 146.769531 90.742188 143.996094 93.265625 141.726562 C 95.925781 139.320312 99.003906 137.457031 102.355469 136.191406 C 105.84375 134.871094 109.558594 134.28125 113.28125 134.371094 C 116.996094 134.460938 120.671875 135.234375 124.019531 136.730469 C 127.277344 138.140625 130.265625 140.1875 132.792969 142.683594 C 135.273438 145.09375 137.246094 147.953125 138.660156 151.089844 C 139.90625 153.753906 140.6875 156.59375 141.007812 159.503906 C 141.371094 162.609375 141.195312 165.78125 140.5 168.824219 C 139.902344 171.546875 138.898438 174.164062 137.535156 176.589844 C 134.542969 181.871094 129.84375 186.144531 124.269531 188.644531 C 123.917969 188.800781 123.5625 188.945312 123.214844 189.097656 L 123.050781 190.183594 C 122.835938 191.558594 122.5625 192.914062 122.210938 194.261719 L 122.273438 194.191406 C 124.015625 193.648438 125.714844 192.96875 127.324219 192.195312 C 133.796875 189.015625 139.121094 183.746094 142.335938 177.339844 C 143.757812 174.433594 144.816406 171.300781 145.320312 168.121094 C 145.917969 164.714844 145.917969 161.171875 145.367188 157.71875 C 144.859375 154.402344 143.804688 151.132812 142.292969 148.132812 C 140.503906 144.582031 138.078125 141.359375 135.132812 138.65625 C 132.09375 135.855469 128.53125 133.621094 124.667969 132.117188 C 120.65625 130.554688 116.347656 129.785156 112.039062 129.832031 C 107.746094 129.882812 103.472656 130.765625 99.5 132.417969 C 95.683594 134.007812 92.191406 136.328125 89.398438 139.09375 C 86.5625 141.863281 84.175781 145.179688 82.476562 148.765625 C 81.054688 151.8125 80.089844 155.128906 79.632812 158.484375 C 79.167969 162.074219 79.304688 165.753906 80.089844 169.25 Z M 80.089844 169.25 " fill-opacity="1" fill-rule="nonzero"/></g><path fill="#000000" d="M 112.359375 152.390625 L 112.359375 152.453125 C 107.882812 152.453125 104.257812 156.046875 104.257812 160.449219 C 104.257812 164.855469 107.882812 168.445312 112.359375 168.445312 C 116.824219 168.445312 120.453125 164.855469 120.453125 160.410156 C 120.457031 155.976562 116.828125 152.390625 112.359375 152.390625 Z M 112.359375 152.390625 " fill-opacity="1" fill-rule="nonzero"/><path fill="#000000" d="M 128.144531 155.769531 C 128.828125 157.316406 129.296875 158.949219 129.523438 160.632812 C 129.792969 162.539062 129.707031 164.445312 129.335938 166.261719 C 129.011719 167.902344 128.417969 169.492188 127.636719 170.945312 C 126.578125 172.898438 125.15625 174.625 123.457031 175.984375 C 123.546875 176.347656 123.640625 176.664062 123.6875 177.03125 C 123.828125 177.96875 123.828125 178.921875 123.828125 179.878906 L 123.800781 181.296875 L 123.453125 181.617188 C 127.214844 179.386719 130.292969 175.984375 132.078125 172.027344 C 133.003906 170.074219 133.597656 167.984375 133.871094 165.851562 C 134.191406 163.667969 134.105469 161.445312 133.734375 159.265625 C 133.367188 157.175781 132.628906 155.132812 131.664062 153.222656 C 130.476562 150.902344 128.820312 148.816406 126.894531 147.042969 C 124.921875 145.273438 122.671875 143.863281 120.191406 142.914062 C 117.488281 141.867188 114.550781 141.367188 111.609375 141.414062 C 108.714844 141.503906 105.824219 142.140625 103.160156 143.320312 C 100.773438 144.367188 98.570312 145.863281 96.691406 147.726562 C 94.855469 149.589844 93.296875 151.769531 92.242188 154.128906 C 91.367188 156.039062 90.769531 158.128906 90.496094 160.261719 C 90.175781 162.628906 90.265625 165.03125 90.769531 167.347656 C 91.1875 169.441406 91.917969 171.4375 92.976562 173.300781 C 94.765625 176.570312 97.429688 179.390625 100.644531 181.339844 L 100.644531 180.066406 C 100.644531 179.070312 100.601562 178.164062 100.78125 177.207031 L 101.058594 175.984375 C 99.125 174.300781 97.570312 172.257812 96.511719 169.9375 C 95.828125 168.398438 95.367188 166.761719 95.136719 165.082031 C 94.910156 163.359375 94.953125 161.585938 95.273438 159.859375 C 95.59375 158.179688 96.140625 156.585938 96.925781 155.089844 C 97.84375 153.230469 99.128906 151.59375 100.695312 150.1875 C 102.253906 148.78125 104.042969 147.691406 105.972656 146.917969 C 108.128906 146.097656 110.472656 145.6875 112.769531 145.734375 C 115.0625 145.78125 117.359375 146.324219 119.46875 147.230469 C 121.398438 148.097656 123.097656 149.277344 124.613281 150.730469 C 126.082031 152.183594 127.277344 153.910156 128.144531 155.769531 Z M 128.144531 155.769531 " fill-opacity="1" fill-rule="nonzero"/><g clip-path="url(#id4)"><path fill="#000000" d="M 112.359375 170.800781 C 107.921875 170.800781 104.320312 174.371094 104.320312 178.75 C 104.320312 202.28125 112.359375 202.28125 112.359375 202.28125 C 112.359375 202.28125 120.390625 202.28125 120.390625 178.75 C 120.390625 174.371094 116.792969 170.800781 112.359375 170.800781 Z M 112.359375 170.800781 " fill-opacity="1" fill-rule="nonzero"/></g><g fill="#000000" fill-opacity="1"><g transform="translate(44.108049, 57.243199)"><g><path d="M 16.75 -4.375 C 16.75 -2.613281 16.816406 -1.15625 16.953125 0 C 15.648438 -0.0625 13.453125 -0.09375 10.359375 -0.09375 C 6.179688 -0.09375 3.054688 -0.0625 0.984375 0 L 0.984375 -0.578125 C 1.609375 -0.617188 2.070312 -0.695312 2.375 -0.8125 C 2.675781 -0.925781 2.878906 -1.144531 2.984375 -1.46875 C 3.085938 -1.789062 3.140625 -2.316406 3.140625 -3.046875 L 3.140625 -17.328125 C 3.140625 -18.054688 3.085938 -18.582031 2.984375 -18.90625 C 2.878906 -19.238281 2.675781 -19.460938 2.375 -19.578125 C 2.070312 -19.691406 1.609375 -19.765625 0.984375 -19.796875 L 0.984375 -20.375 C 3.054688 -20.320312 6.179688 -20.296875 10.359375 -20.296875 C 13.179688 -20.296875 15.1875 -20.320312 16.375 -20.375 C 16.238281 -18.78125 16.171875 -17.363281 16.171875 -16.125 C 16.171875 -15.269531 16.203125 -14.613281 16.265625 -14.15625 L 15.59375 -14.15625 C 15.3125 -16.207031 14.796875 -17.644531 14.046875 -18.46875 C 13.296875 -19.300781 12.238281 -19.71875 10.875 -19.71875 L 9.703125 -19.71875 C 9.109375 -19.71875 8.675781 -19.664062 8.40625 -19.5625 C 8.132812 -19.46875 7.953125 -19.28125 7.859375 -19 C 7.765625 -18.726562 7.71875 -18.285156 7.71875 -17.671875 L 7.71875 -10.53125 L 8.640625 -10.53125 C 9.648438 -10.53125 10.421875 -10.90625 10.953125 -11.65625 C 11.484375 -12.40625 11.851562 -13.296875 12.0625 -14.328125 L 12.71875 -14.328125 C 12.664062 -13.523438 12.640625 -12.625 12.640625 -11.625 L 12.640625 -10.25 C 12.640625 -9.269531 12.695312 -7.90625 12.8125 -6.15625 L 12.140625 -6.15625 C 11.742188 -8.6875 10.578125 -9.953125 8.640625 -9.953125 L 7.71875 -9.953125 L 7.71875 -2.703125 C 7.71875 -2.085938 7.765625 -1.640625 7.859375 -1.359375 C 7.953125 -1.085938 8.132812 -0.898438 8.40625 -0.796875 C 8.675781 -0.703125 9.109375 -0.65625 9.703125 -0.65625 L 11.109375 -0.65625 C 12.472656 -0.65625 13.570312 -1.117188 14.40625 -2.046875 C 15.238281 -2.984375 15.828125 -4.566406 16.171875 -6.796875 L 16.84375 -6.796875 C 16.78125 -6.160156 16.75 -5.351562 16.75 -4.375 Z M 16.75 -4.375 "/></g></g></g><g fill="#000000" fill-opacity="1"><g transform="translate(62.353057, 57.243199)"><g><path d="M 11.015625 -15.28125 C 12.015625 -15.28125 12.898438 -15.007812 13.671875 -14.46875 C 14.453125 -13.9375 15.0625 -13.132812 15.5 -12.0625 C 15.945312 -10.988281 16.171875 -9.671875 16.171875 -8.109375 C 16.171875 -5.367188 15.570312 -3.265625 14.375 -1.796875 C 13.175781 -0.328125 11.550781 0.40625 9.5 0.40625 C 8.925781 0.40625 8.382812 0.328125 7.875 0.171875 C 7.363281 0.015625 6.925781 -0.210938 6.5625 -0.515625 L 6.5625 2.359375 C 6.5625 3.203125 6.769531 3.785156 7.1875 4.109375 C 7.613281 4.441406 8.269531 4.609375 9.15625 4.609375 L 9.15625 5.203125 L 8.375 5.1875 C 6.25 5.125 4.894531 5.09375 4.3125 5.09375 C 3.738281 5.09375 2.53125 5.128906 0.6875 5.203125 L 0.6875 4.609375 C 1.320312 4.609375 1.769531 4.46875 2.03125 4.1875 C 2.289062 3.90625 2.421875 3.390625 2.421875 2.640625 L 2.421875 -11.75 C 2.421875 -12.625 2.28125 -13.265625 2 -13.671875 C 1.71875 -14.078125 1.242188 -14.28125 0.578125 -14.28125 L 0.578125 -14.875 C 1.191406 -14.820312 1.785156 -14.796875 2.359375 -14.796875 C 4.023438 -14.796875 5.425781 -14.929688 6.5625 -15.203125 L 6.5625 -12.546875 C 6.96875 -13.429688 7.550781 -14.109375 8.3125 -14.578125 C 9.082031 -15.046875 9.984375 -15.28125 11.015625 -15.28125 Z M 8.375 -0.375 C 9.601562 -0.375 10.484375 -0.984375 11.015625 -2.203125 C 11.554688 -3.421875 11.828125 -5.203125 11.828125 -7.546875 C 11.828125 -9.878906 11.609375 -11.546875 11.171875 -12.546875 C 10.742188 -13.546875 10.128906 -14.046875 9.328125 -14.046875 C 8.671875 -14.046875 8.085938 -13.820312 7.578125 -13.375 C 7.078125 -12.9375 6.738281 -12.328125 6.5625 -11.546875 L 6.5625 -1.15625 C 7.019531 -0.632812 7.625 -0.375 8.375 -0.375 Z M 8.375 -0.375 "/></g></g></g><g fill="#000000" fill-opacity="1"><g transform="translate(79.619625, 57.243199)"><g><path d="M 4.4375 -22.3125 C 5.238281 -22.3125 5.875 -22.113281 6.34375 -21.71875 C 6.8125 -21.320312 7.046875 -20.78125 7.046875 -20.09375 C 7.046875 -19.394531 6.8125 -18.847656 6.34375 -18.453125 C 5.875 -18.066406 5.238281 -17.875 4.4375 -17.875 C 3.625 -17.875 2.984375 -18.066406 2.515625 -18.453125 C 2.046875 -18.847656 1.8125 -19.394531 1.8125 -20.09375 C 1.8125 -20.78125 2.046875 -21.320312 2.515625 -21.71875 C 2.984375 -22.113281 3.625 -22.3125 4.4375 -22.3125 Z M 6.671875 -2.671875 C 6.671875 -1.890625 6.8125 -1.347656 7.09375 -1.046875 C 7.375 -0.753906 7.847656 -0.609375 8.515625 -0.609375 L 8.515625 0 C 6.597656 -0.0703125 5.320312 -0.109375 4.6875 -0.109375 C 4.09375 -0.109375 2.757812 -0.0703125 0.6875 0 L 0.6875 -0.609375 C 1.382812 -0.609375 1.863281 -0.753906 2.125 -1.046875 C 2.394531 -1.347656 2.53125 -1.890625 2.53125 -2.671875 L 2.53125 -11.75 C 2.53125 -12.625 2.394531 -13.265625 2.125 -13.671875 C 1.863281 -14.078125 1.382812 -14.28125 0.6875 -14.28125 L 0.6875 -14.875 C 1.300781 -14.820312 1.894531 -14.796875 2.46875 -14.796875 C 4.175781 -14.796875 5.578125 -14.929688 6.671875 -15.203125 Z M 6.671875 -2.671875 "/></g></g></g><g fill="#000000" fill-opacity="1"><g transform="translate(88.684574, 57.243199)"><g><path d="M 6.390625 -15.28125 C 7.117188 -15.28125 7.789062 -15.1875 8.40625 -15 C 9.019531 -14.820312 9.488281 -14.617188 9.8125 -14.390625 C 10.007812 -14.253906 10.179688 -14.1875 10.328125 -14.1875 C 10.503906 -14.1875 10.65625 -14.273438 10.78125 -14.453125 C 10.90625 -14.640625 10.984375 -14.90625 11.015625 -15.25 L 11.625 -15.25 C 11.550781 -14.269531 11.515625 -12.582031 11.515625 -10.1875 L 10.90625 -10.1875 C 10.738281 -11.457031 10.359375 -12.519531 9.765625 -13.375 C 9.179688 -14.226562 8.332031 -14.65625 7.21875 -14.65625 C 6.644531 -14.65625 6.171875 -14.488281 5.796875 -14.15625 C 5.421875 -13.832031 5.234375 -13.382812 5.234375 -12.8125 C 5.234375 -12.15625 5.453125 -11.59375 5.890625 -11.125 C 6.335938 -10.65625 7.03125 -10.082031 7.96875 -9.40625 L 8.8125 -8.8125 C 9.976562 -7.925781 10.835938 -7.132812 11.390625 -6.4375 C 11.953125 -5.75 12.234375 -4.890625 12.234375 -3.859375 C 12.234375 -3.015625 11.988281 -2.265625 11.5 -1.609375 C 11.007812 -0.960938 10.347656 -0.460938 9.515625 -0.109375 C 8.691406 0.234375 7.785156 0.40625 6.796875 0.40625 C 5.734375 0.40625 4.832031 0.203125 4.09375 -0.203125 C 3.476562 -0.503906 3.035156 -0.707031 2.765625 -0.8125 C 2.566406 -0.863281 2.394531 -0.796875 2.25 -0.609375 C 2.113281 -0.429688 2.003906 -0.160156 1.921875 0.203125 L 1.328125 0.203125 C 1.398438 -0.890625 1.4375 -2.8125 1.4375 -5.5625 L 2.046875 -5.5625 C 2.429688 -2.03125 3.722656 -0.265625 5.921875 -0.265625 C 6.484375 -0.265625 6.957031 -0.429688 7.34375 -0.765625 C 7.738281 -1.097656 7.9375 -1.609375 7.9375 -2.296875 C 7.9375 -2.835938 7.816406 -3.316406 7.578125 -3.734375 C 7.335938 -4.160156 7.035156 -4.535156 6.671875 -4.859375 C 6.304688 -5.191406 5.757812 -5.644531 5.03125 -6.21875 C 4.164062 -6.90625 3.507812 -7.457031 3.0625 -7.875 C 2.613281 -8.300781 2.226562 -8.800781 1.90625 -9.375 C 1.59375 -9.957031 1.4375 -10.601562 1.4375 -11.3125 C 1.4375 -12.539062 1.914062 -13.507812 2.875 -14.21875 C 3.832031 -14.925781 5.003906 -15.28125 6.390625 -15.28125 Z M 6.390625 -15.28125 "/></g></g></g><g fill="#000000" fill-opacity="1"><g transform="translate(101.979839, 57.243199)"><g><path d="M 8.109375 -15.28125 C 10.316406 -15.28125 12.046875 -14.648438 13.296875 -13.390625 C 14.546875 -12.140625 15.171875 -10.148438 15.171875 -7.421875 C 15.171875 -4.703125 14.546875 -2.71875 13.296875 -1.46875 C 12.046875 -0.21875 10.316406 0.40625 8.109375 0.40625 C 5.921875 0.40625 4.195312 -0.21875 2.9375 -1.46875 C 1.6875 -2.71875 1.0625 -4.703125 1.0625 -7.421875 C 1.0625 -10.148438 1.6875 -12.140625 2.9375 -13.390625 C 4.195312 -14.648438 5.921875 -15.28125 8.109375 -15.28125 Z M 8.109375 -14.703125 C 7.285156 -14.703125 6.628906 -14.101562 6.140625 -12.90625 C 5.648438 -11.707031 5.40625 -9.878906 5.40625 -7.421875 C 5.40625 -4.960938 5.648438 -3.140625 6.140625 -1.953125 C 6.628906 -0.765625 7.285156 -0.171875 8.109375 -0.171875 C 8.953125 -0.171875 9.613281 -0.757812 10.09375 -1.9375 C 10.582031 -3.125 10.828125 -4.953125 10.828125 -7.421875 C 10.828125 -9.898438 10.582031 -11.734375 10.09375 -12.921875 C 9.601562 -14.109375 8.941406 -14.703125 8.109375 -14.703125 Z M 8.109375 -14.703125 "/></g></g></g><g fill="#000000" fill-opacity="1"><g transform="translate(118.239189, 57.243199)"><g><path d="M 14.84375 -3.171875 C 14.84375 -2.285156 14.976562 -1.640625 15.25 -1.234375 C 15.519531 -0.835938 16 -0.640625 16.6875 -0.640625 L 16.6875 -0.03125 C 16.09375 -0.0820312 15.5 -0.109375 14.90625 -0.109375 C 13.195312 -0.109375 11.796875 0.0195312 10.703125 0.28125 L 10.703125 -2.1875 C 10.054688 -0.457031 8.8125 0.40625 6.96875 0.40625 C 5.164062 0.40625 3.726562 -0.25 2.65625 -1.5625 C 1.59375 -2.882812 1.070312 -4.867188 1.09375 -7.515625 C 1.09375 -9.203125 1.363281 -10.625 1.90625 -11.78125 C 2.457031 -12.945312 3.21875 -13.820312 4.1875 -14.40625 C 5.15625 -14.988281 6.265625 -15.28125 7.515625 -15.28125 C 8.910156 -15.28125 9.972656 -14.914062 10.703125 -14.1875 L 10.703125 -19.078125 C 10.703125 -19.960938 10.5625 -20.601562 10.28125 -21 C 10.007812 -21.40625 9.535156 -21.609375 8.859375 -21.609375 L 8.859375 -22.21875 C 9.472656 -22.15625 10.070312 -22.125 10.65625 -22.125 C 12.320312 -22.125 13.71875 -22.257812 14.84375 -22.53125 Z M 8.140625 -0.828125 C 8.773438 -0.828125 9.335938 -1.054688 9.828125 -1.515625 C 10.316406 -1.984375 10.609375 -2.609375 10.703125 -3.390625 L 10.703125 -13.46875 C 10.222656 -14.125 9.523438 -14.453125 8.609375 -14.453125 C 7.585938 -14.453125 6.796875 -13.863281 6.234375 -12.6875 C 5.679688 -11.519531 5.414062 -9.773438 5.4375 -7.453125 C 5.414062 -5.109375 5.640625 -3.414062 6.109375 -2.375 C 6.585938 -1.34375 7.265625 -0.828125 8.140625 -0.828125 Z M 8.140625 -0.828125 "/></g></g></g><g fill="#000000" fill-opacity="1"><g transform="translate(135.448201, 57.243199)"><g><path d="M 9.15625 -1.953125 C 10.726562 -1.953125 11.992188 -2.722656 12.953125 -4.265625 L 13.46875 -4.09375 C 13.082031 -2.84375 12.394531 -1.78125 11.40625 -0.90625 C 10.414062 -0.03125 9.1875 0.40625 7.71875 0.40625 C 5.675781 0.40625 4.054688 -0.238281 2.859375 -1.53125 C 1.660156 -2.832031 1.0625 -4.75 1.0625 -7.28125 C 1.0625 -9.875 1.703125 -11.851562 2.984375 -13.21875 C 4.273438 -14.59375 5.984375 -15.28125 8.109375 -15.28125 C 11.722656 -15.28125 13.53125 -13.148438 13.53125 -8.890625 L 5.4375 -8.890625 C 5.414062 -8.609375 5.40625 -8.160156 5.40625 -7.546875 C 5.40625 -6.273438 5.582031 -5.21875 5.9375 -4.375 C 6.289062 -3.53125 6.75 -2.914062 7.3125 -2.53125 C 7.882812 -2.144531 8.5 -1.953125 9.15625 -1.953125 Z M 7.9375 -14.671875 C 7.25 -14.671875 6.679688 -14.242188 6.234375 -13.390625 C 5.785156 -12.535156 5.5 -11.21875 5.375 -9.4375 L 9.90625 -9.4375 C 9.9375 -10.957031 9.785156 -12.207031 9.453125 -13.1875 C 9.117188 -14.175781 8.613281 -14.671875 7.9375 -14.671875 Z M 7.9375 -14.671875 "/></g></g></g><g fill="#000000" fill-opacity="1"><g transform="translate(149.952118, 57.243199)"><g/></g></g><g fill="#000000" fill-opacity="1"><g transform="translate(156.657307, 57.243199)"><g><path d="M 7.921875 -15.28125 C 9.390625 -15.28125 10.554688 -14.957031 11.421875 -14.3125 C 12.285156 -13.675781 12.71875 -12.78125 12.71875 -11.625 C 12.71875 -10.84375 12.492188 -10.113281 12.046875 -9.4375 C 11.597656 -8.769531 11.066406 -8.175781 10.453125 -7.65625 C 9.835938 -7.132812 8.992188 -6.492188 7.921875 -5.734375 C 6.535156 -4.765625 5.566406 -3.992188 5.015625 -3.421875 L 11.21875 -3.421875 C 11.738281 -3.421875 12.128906 -3.457031 12.390625 -3.53125 C 12.648438 -3.613281 12.828125 -3.738281 12.921875 -3.90625 C 13.015625 -4.082031 13.09375 -4.351562 13.15625 -4.71875 L 13.75 -4.71875 C 13.75 -2.457031 13.789062 -0.835938 13.875 0.140625 C 13.445312 0.046875 12.015625 0 9.578125 0 L 1.203125 0 L 1.203125 -0.546875 C 1.453125 -0.816406 1.941406 -1.273438 2.671875 -1.921875 C 3.785156 -2.941406 4.710938 -3.847656 5.453125 -4.640625 C 6.191406 -5.441406 6.832031 -6.363281 7.375 -7.40625 C 7.925781 -8.457031 8.203125 -9.546875 8.203125 -10.671875 C 8.203125 -11.691406 7.972656 -12.4375 7.515625 -12.90625 C 7.066406 -13.375 6.40625 -13.609375 5.53125 -13.609375 C 4.71875 -13.609375 4 -13.421875 3.375 -13.046875 C 2.757812 -12.671875 2.191406 -12.117188 1.671875 -11.390625 L 1.1875 -11.6875 C 2.601562 -14.082031 4.847656 -15.28125 7.921875 -15.28125 Z M 7.921875 -15.28125 "/></g></g></g><g fill="#000000" fill-opacity="1"><g transform="translate(24.274277, 107.439606)"><g><path d="M 6.4375 -26.765625 L 6.4375 -25.28125 L 4.453125 -25.28125 L 4.453125 0 L 2.484375 0 L 2.484375 -25.28125 L 0.5 -25.28125 L 0.5 -26.765625 Z M 6.4375 -26.765625 "/></g></g></g><g fill="#000000" fill-opacity="1"><g transform="translate(37.11296, 107.439606)"><g><path d="M 2.96875 -14.375 L 4.953125 -14.375 L 4.953125 -26.765625 L 6.9375 -26.765625 L 6.9375 0 L 4.953125 0 L 4.953125 -12.890625 L 2.96875 -12.890625 L 2.96875 0 L 0.984375 0 L 0.984375 -26.765625 L 2.96875 -26.765625 Z M 2.96875 -14.375 "/></g></g></g><g fill="#000000" fill-opacity="1"><g transform="translate(50.942813, 107.439606)"><g><path d="M 5.453125 -25.28125 L 2.96875 -25.28125 L 2.96875 -14.875 L 4.953125 -14.875 L 4.953125 -13.375 L 2.96875 -13.375 L 2.96875 -1.484375 L 5.453125 -1.484375 L 5.453125 0 L 0.984375 0 L 0.984375 -26.765625 L 5.453125 -26.765625 Z M 5.453125 -25.28125 "/></g></g></g><g fill="#000000" fill-opacity="1"><g transform="translate(62.790326, 107.439606)"><g/></g></g><g fill="#000000" fill-opacity="1"><g transform="translate(72.361245, 107.439606)"><g><path d="M 6.9375 0 L 4.953125 0 L 2.484375 -19.828125 L 2.484375 0 L 0.984375 0 L 0.984375 -26.765625 L 2.96875 -26.765625 L 5.453125 -6.9375 L 5.453125 -26.765625 L 6.9375 -26.765625 Z M 6.9375 0 "/></g></g></g><g fill="#000000" fill-opacity="1"><g transform="translate(86.191098, 107.439606)"><g><path d="M 5.453125 -25.28125 L 2.96875 -25.28125 L 2.96875 -14.875 L 4.953125 -14.875 L 4.953125 -13.375 L 2.96875 -13.375 L 2.96875 -1.484375 L 5.453125 -1.484375 L 5.453125 0 L 0.984375 0 L 0.984375 -26.765625 L 5.453125 -26.765625 Z M 5.453125 -25.28125 "/></g></g></g><g fill="#000000" fill-opacity="1"><g transform="translate(98.038611, 107.439606)"><g><path d="M 5.453125 -22.796875 L 4.953125 -15.359375 L 3.96875 0 L 1.984375 0 L 0.5 -26.765625 L 2.484375 -26.765625 L 2.96875 -7.9375 L 4.453125 -26.765625 L 6.4375 -26.765625 L 7.9375 -7.9375 L 8.421875 -26.765625 L 10.40625 -26.765625 L 8.921875 0 L 6.9375 0 L 5.953125 -15.359375 Z M 5.453125 -22.796875 "/></g></g></g><g fill="#000000" fill-opacity="1"><g transform="translate(114.841976, 107.439606)"><g/></g></g><g fill="#000000" fill-opacity="1"><g transform="translate(124.412894, 107.439606)"><g><path d="M 6.9375 -2.484375 C 6.9375 -2.359375 6.921875 -2.128906 6.890625 -1.796875 C 6.859375 -1.472656 6.75 -1.140625 6.5625 -0.796875 C 6.375 -0.460938 6.078125 -0.164062 5.671875 0.09375 C 5.273438 0.363281 4.707031 0.5 3.96875 0.5 C 3.21875 0.5 2.640625 0.363281 2.234375 0.09375 C 1.835938 -0.164062 1.546875 -0.460938 1.359375 -0.796875 C 1.171875 -1.140625 1.0625 -1.472656 1.03125 -1.796875 C 1 -2.128906 0.984375 -2.359375 0.984375 -2.484375 L 0.984375 -24.28125 C 0.984375 -24.363281 0.988281 -24.488281 1 -24.65625 C 1.007812 -24.820312 1.039062 -25.003906 1.09375 -25.203125 C 1.144531 -25.410156 1.234375 -25.617188 1.359375 -25.828125 C 1.484375 -26.035156 1.65625 -26.226562 1.875 -26.40625 C 2.09375 -26.582031 2.367188 -26.722656 2.703125 -26.828125 C 3.046875 -26.941406 3.46875 -27 3.96875 -27 C 4.457031 -27 4.875 -26.941406 5.21875 -26.828125 C 5.5625 -26.722656 5.835938 -26.582031 6.046875 -26.40625 C 6.265625 -26.226562 6.4375 -26.035156 6.5625 -25.828125 C 6.6875 -25.617188 6.773438 -25.410156 6.828125 -25.203125 C 6.878906 -25.003906 6.910156 -24.820312 6.921875 -24.65625 C 6.929688 -24.488281 6.9375 -24.363281 6.9375 -24.28125 Z M 2.96875 -2.484375 C 2.96875 -2.359375 2.972656 -2.207031 2.984375 -2.03125 C 2.992188 -1.863281 3.03125 -1.703125 3.09375 -1.546875 C 3.15625 -1.390625 3.253906 -1.253906 3.390625 -1.140625 C 3.523438 -1.035156 3.71875 -0.984375 3.96875 -0.984375 C 4.21875 -0.984375 4.40625 -1.035156 4.53125 -1.140625 C 4.664062 -1.253906 4.765625 -1.390625 4.828125 -1.546875 C 4.890625 -1.703125 4.925781 -1.863281 4.9375 -2.03125 C 4.945312 -2.207031 4.953125 -2.359375 4.953125 -2.484375 L 4.953125 -24.28125 C 4.953125 -24.40625 4.945312 -24.539062 4.9375 -24.6875 C 4.925781 -24.832031 4.890625 -24.960938 4.828125 -25.078125 C 4.765625 -25.203125 4.664062 -25.304688 4.53125 -25.390625 C 4.40625 -25.472656 4.21875 -25.515625 3.96875 -25.515625 C 3.71875 -25.515625 3.523438 -25.472656 3.390625 -25.390625 C 3.253906 -25.304688 3.15625 -25.203125 3.09375 -25.078125 C 3.03125 -24.960938 2.992188 -24.832031 2.984375 -24.6875 C 2.972656 -24.539062 2.96875 -24.40625 2.96875 -24.28125 Z M 2.96875 -2.484375 "/></g></g></g><g fill="#000000" fill-opacity="1"><g transform="translate(138.242748, 107.439606)"><g><path d="M 6.9375 -15.859375 C 6.9375 -15.117188 6.8125 -14.601562 6.5625 -14.3125 C 6.3125 -14.019531 5.941406 -13.875 5.453125 -13.875 C 5.703125 -13.875 5.914062 -13.816406 6.09375 -13.703125 C 6.28125 -13.585938 6.4375 -13.4375 6.5625 -13.25 C 6.6875 -13.070312 6.78125 -12.863281 6.84375 -12.625 C 6.90625 -12.382812 6.9375 -12.140625 6.9375 -11.890625 L 6.9375 0 L 4.953125 0 L 4.953125 -12.390625 C 4.953125 -12.640625 4.894531 -12.832031 4.78125 -12.96875 C 4.664062 -13.101562 4.515625 -13.195312 4.328125 -13.25 C 4.148438 -13.3125 3.941406 -13.347656 3.703125 -13.359375 C 3.460938 -13.367188 3.21875 -13.375 2.96875 -13.375 L 2.96875 0 L 0.984375 0 L 0.984375 -26.765625 L 2.96875 -26.765625 C 3.46875 -26.765625 3.953125 -26.75 4.421875 -26.71875 C 4.898438 -26.695312 5.320312 -26.609375 5.6875 -26.453125 C 6.0625 -26.296875 6.363281 -26.050781 6.59375 -25.71875 C 6.820312 -25.382812 6.9375 -24.90625 6.9375 -24.28125 Z M 4.953125 -24.28125 C 4.953125 -24.53125 4.914062 -24.722656 4.84375 -24.859375 C 4.78125 -24.992188 4.671875 -25.09375 4.515625 -25.15625 C 4.367188 -25.21875 4.164062 -25.253906 3.90625 -25.265625 C 3.65625 -25.273438 3.34375 -25.28125 2.96875 -25.28125 L 2.96875 -14.375 C 3.21875 -14.375 3.460938 -14.378906 3.703125 -14.390625 C 3.941406 -14.398438 4.148438 -14.4375 4.328125 -14.5 C 4.515625 -14.5625 4.664062 -14.65625 4.78125 -14.78125 C 4.894531 -14.914062 4.953125 -15.109375 4.953125 -15.359375 Z M 4.953125 -24.28125 "/></g></g></g><g fill="#000000" fill-opacity="1"><g transform="translate(152.072601, 107.439606)"><g><path d="M 4.953125 -24.28125 C 4.953125 -24.53125 4.914062 -24.722656 4.84375 -24.859375 C 4.78125 -24.992188 4.671875 -25.09375 4.515625 -25.15625 C 4.367188 -25.21875 4.164062 -25.253906 3.90625 -25.265625 C 3.65625 -25.273438 3.34375 -25.28125 2.96875 -25.28125 L 2.96875 -1.484375 C 3.34375 -1.484375 3.65625 -1.488281 3.90625 -1.5 C 4.164062 -1.507812 4.367188 -1.546875 4.515625 -1.609375 C 4.671875 -1.671875 4.78125 -1.769531 4.84375 -1.90625 C 4.914062 -2.039062 4.953125 -2.234375 4.953125 -2.484375 Z M 6.9375 -2.484375 C 6.9375 -1.859375 6.820312 -1.378906 6.59375 -1.046875 C 6.363281 -0.710938 6.0625 -0.46875 5.6875 -0.3125 C 5.320312 -0.15625 4.898438 -0.0625 4.421875 -0.03125 C 3.953125 -0.0078125 3.46875 0 2.96875 0 L 0.984375 0 L 0.984375 -26.765625 L 2.96875 -26.765625 C 3.46875 -26.765625 3.953125 -26.75 4.421875 -26.71875 C 4.898438 -26.695312 5.320312 -26.609375 5.6875 -26.453125 C 6.0625 -26.296875 6.363281 -26.050781 6.59375 -25.71875 C 6.820312 -25.382812 6.9375 -24.90625 6.9375 -24.28125 Z M 6.9375 -2.484375 "/></g></g></g><g fill="#000000" fill-opacity="1"><g transform="translate(165.902455, 107.439606)"><g><path d="M 5.453125 -25.28125 L 2.96875 -25.28125 L 2.96875 -14.875 L 4.953125 -14.875 L 4.953125 -13.375 L 2.96875 -13.375 L 2.96875 -1.484375 L 5.453125 -1.484375 L 5.453125 0 L 0.984375 0 L 0.984375 -26.765625 L 5.453125 -26.765625 Z M 5.453125 -25.28125 "/></g></g></g><g fill="#000000" fill-opacity="1"><g transform="translate(177.749968, 107.439606)"><g><path d="M 6.9375 -15.859375 C 6.9375 -15.117188 6.8125 -14.601562 6.5625 -14.3125 C 6.3125 -14.019531 5.941406 -13.875 5.453125 -13.875 C 5.703125 -13.875 5.914062 -13.816406 6.09375 -13.703125 C 6.28125 -13.585938 6.4375 -13.4375 6.5625 -13.25 C 6.6875 -13.070312 6.78125 -12.863281 6.84375 -12.625 C 6.90625 -12.382812 6.9375 -12.140625 6.9375 -11.890625 L 6.9375 0 L 4.953125 0 L 4.953125 -12.390625 C 4.953125 -12.640625 4.894531 -12.832031 4.78125 -12.96875 C 4.664062 -13.101562 4.515625 -13.195312 4.328125 -13.25 C 4.148438 -13.3125 3.941406 -13.347656 3.703125 -13.359375 C 3.460938 -13.367188 3.21875 -13.375 2.96875 -13.375 L 2.96875 0 L 0.984375 0 L 0.984375 -26.765625 L 2.96875 -26.765625 C 3.46875 -26.765625 3.953125 -26.75 4.421875 -26.71875 C 4.898438 -26.695312 5.320312 -26.609375 5.6875 -26.453125 C 6.0625 -26.296875 6.363281 -26.050781 6.59375 -25.71875 C 6.820312 -25.382812 6.9375 -24.90625 6.9375 -24.28125 Z M 4.953125 -24.28125 C 4.953125 -24.53125 4.914062 -24.722656 4.84375 -24.859375 C 4.78125 -24.992188 4.671875 -25.09375 4.515625 -25.15625 C 4.367188 -25.21875 4.164062 -25.253906 3.90625 -25.265625 C 3.65625 -25.273438 3.34375 -25.28125 2.96875 -25.28125 L 2.96875 -14.375 C 3.21875 -14.375 3.460938 -14.378906 3.703125 -14.390625 C 3.941406 -14.398438 4.148438 -14.4375 4.328125 -14.5 C 4.515625 -14.5625 4.664062 -14.65625 4.78125 -14.78125 C 4.894531 -14.914062 4.953125 -15.109375 4.953125 -15.359375 Z M 4.953125 -24.28125 "/></g></g></g><g fill="#000000" fill-opacity="1"><g transform="translate(191.579821, 107.439606)"><g/></g></g><g fill="#000000" fill-opacity="1"><g transform="translate(201.15074, 107.439606)"><g><path d="M 3.96875 -3.96875 L 1.984375 -3.96875 L 1.984375 -8.421875 C 1.984375 -9.523438 2.03125 -10.445312 2.125 -11.1875 C 2.226562 -11.9375 2.347656 -12.585938 2.484375 -13.140625 C 2.628906 -13.703125 2.789062 -14.21875 2.96875 -14.6875 C 3.144531 -15.15625 3.304688 -15.660156 3.453125 -16.203125 C 3.597656 -16.753906 3.71875 -17.390625 3.8125 -18.109375 C 3.914062 -18.835938 3.96875 -19.738281 3.96875 -20.8125 L 3.96875 -24.28125 C 3.96875 -24.738281 3.890625 -25.078125 3.734375 -25.296875 C 3.578125 -25.515625 3.398438 -25.625 3.203125 -25.625 C 3.023438 -25.625 2.859375 -25.515625 2.703125 -25.296875 C 2.554688 -25.078125 2.484375 -24.738281 2.484375 -24.28125 L 2.484375 -17.34375 L 0.5 -17.34375 L 0.5 -24.28125 C 0.5 -24.78125 0.570312 -25.210938 0.71875 -25.578125 C 0.875 -25.953125 1.082031 -26.265625 1.34375 -26.515625 C 1.601562 -26.765625 1.894531 -26.953125 2.21875 -27.078125 C 2.539062 -27.203125 2.875 -27.265625 3.21875 -27.265625 C 3.5625 -27.265625 3.894531 -27.203125 4.21875 -27.078125 C 4.539062 -26.953125 4.832031 -26.765625 5.09375 -26.515625 C 5.351562 -26.265625 5.5625 -25.953125 5.71875 -25.578125 C 5.875 -25.210938 5.953125 -24.78125 5.953125 -24.28125 L 5.953125 -20.8125 C 5.953125 -19.945312 5.921875 -19.203125 5.859375 -18.578125 C 5.804688 -17.960938 5.734375 -17.421875 5.640625 -16.953125 C 5.546875 -16.484375 5.4375 -16.054688 5.3125 -15.671875 C 5.195312 -15.296875 5.078125 -14.921875 4.953125 -14.546875 C 4.828125 -14.171875 4.703125 -13.769531 4.578125 -13.34375 C 4.460938 -12.914062 4.359375 -12.40625 4.265625 -11.8125 C 4.179688 -11.226562 4.109375 -10.539062 4.046875 -9.75 C 3.992188 -8.96875 3.96875 -8.03125 3.96875 -6.9375 Z M 3.96875 -1.984375 L 3.96875 0 L 1.984375 0 L 1.984375 -1.984375 Z M 3.96875 -1.984375 "/></g></g></g><g fill="#000000" fill-opacity="1"><g transform="translate(78.678288, 123.115009)"><g><path d="M 0.324219 0 L 1.523438 0 L 1.523438 -0.351562 L 1.125 -0.351562 L 1.59375 -1.5625 L 3.613281 -1.5625 L 4.085938 -0.351562 L 3.6875 -0.351562 L 3.6875 0 L 4.882812 0 L 4.882812 -0.351562 L 4.550781 -0.351562 L 2.9375 -4.476562 L 1.628906 -4.476562 L 1.628906 -4.117188 L 2.132812 -4.117188 L 0.660156 -0.351562 L 0.324219 -0.351562 Z M 1.75 -1.960938 L 2.605469 -4.125 L 3.460938 -1.960938 Z M 1.75 -1.960938 "/></g></g></g><g fill="#000000" fill-opacity="1"><g transform="translate(84.912871, 123.115009)"><g><path d="M 0.527344 0 L 1.808594 0 L 1.808594 -0.351562 L 1.351562 -0.351562 L 1.351562 -1.734375 L 2.605469 -1.734375 C 4.117188 -1.734375 4.125 -2.800781 4.125 -3.183594 C 4.125 -4.214844 3.410156 -4.476562 2.816406 -4.476562 L 0.527344 -4.476562 L 0.527344 -4.117188 L 0.917969 -4.117188 L 0.917969 -0.351562 L 0.527344 -0.351562 Z M 1.351562 -2.132812 L 1.351562 -4.078125 L 2.679688 -4.078125 C 3.035156 -4.078125 3.695312 -4.078125 3.695312 -3.191406 C 3.695312 -2.734375 3.695312 -2.132812 2.621094 -2.132812 Z M 1.351562 -2.132812 "/></g></g></g><g fill="#000000" fill-opacity="1"><g transform="translate(90.431214, 123.115009)"><g><path d="M 1.261719 0.0390625 C 1.878906 0.0390625 2.757812 -0.0976562 2.757812 -0.917969 L 2.757812 -4.476562 L 1.40625 -4.476562 L 1.40625 -4.117188 L 2.328125 -4.117188 L 2.328125 -1.015625 C 2.328125 -0.40625 1.570312 -0.351562 1.285156 -0.351562 C 1.113281 -0.351562 0.625 -0.398438 0.292969 -0.511719 L 0.203125 -0.113281 C 0.527344 0.0390625 1.132812 0.0390625 1.261719 0.0390625 Z M 1.261719 0.0390625 "/></g></g></g><g fill="#000000" fill-opacity="1"><g transform="translate(94.867041, 123.115009)"><g><path d="M 2.375 0.0390625 C 3.027344 0.0390625 4.214844 -0.0234375 4.214844 -1.253906 L 4.214844 -3.214844 C 4.214844 -4.3125 3.027344 -4.515625 2.375 -4.515625 C 1.726562 -4.515625 0.527344 -4.3125 0.527344 -3.214844 L 0.527344 -1.253906 C 0.527344 -0.0234375 1.726562 0.0390625 2.375 0.0390625 Z M 2.375 -0.351562 C 1.921875 -0.351562 0.960938 -0.351562 0.960938 -1.359375 L 0.960938 -3.15625 C 0.960938 -4.109375 2.132812 -4.117188 2.382812 -4.117188 C 2.613281 -4.117188 3.785156 -4.117188 3.785156 -3.15625 L 3.785156 -1.359375 C 3.785156 -0.351562 2.824219 -0.351562 2.375 -0.351562 Z M 2.375 -0.351562 "/></g></g></g><g fill="#000000" fill-opacity="1"><g transform="translate(100.637692, 123.115009)"><g><path d="M 1.71875 0 L 2.90625 0 L 2.90625 -0.351562 L 2.53125 -0.351562 L 2.53125 -4.078125 L 3.859375 -4.078125 L 3.859375 -3.65625 L 4.191406 -3.65625 L 4.191406 -4.476562 L 0.40625 -4.476562 L 0.40625 -3.65625 L 0.742188 -3.65625 L 0.742188 -4.078125 L 2.101562 -4.078125 L 2.101562 -0.351562 L 1.71875 -0.351562 Z M 1.71875 0 "/></g></g></g><g fill="#000000" fill-opacity="1"><g transform="translate(106.261837, 123.115009)"><g/></g></g><g fill="#000000" fill-opacity="1"><g transform="translate(108.980307, 123.115009)"><g><path d="M 2.304688 0.0390625 C 3.125 0.0390625 4.0625 0.0390625 4.0625 -1.15625 C 4.0625 -2.246094 1.007812 -2.269531 1.007812 -3.3125 C 1.007812 -3.777344 1.328125 -4.117188 2.304688 -4.117188 C 2.351562 -4.117188 3.28125 -4.078125 3.644531 -3.972656 L 3.644531 -3.558594 L 3.980469 -3.558594 L 3.980469 -4.339844 C 3.679688 -4.402344 2.847656 -4.515625 2.296875 -4.515625 C 1.425781 -4.515625 0.578125 -4.214844 0.578125 -3.3125 C 0.578125 -1.816406 3.628906 -1.855469 3.628906 -1.089844 C 3.628906 -0.351562 2.914062 -0.351562 2.304688 -0.351562 C 1.90625 -0.351562 1.40625 -0.398438 0.863281 -0.636719 L 0.863281 -0.976562 L 0.527344 -0.976562 L 0.527344 -0.316406 C 0.910156 -0.113281 1.585938 0.0390625 2.304688 0.0390625 Z M 2.304688 0.0390625 "/></g></g></g><g fill="#000000" fill-opacity="1"><g transform="translate(114.596318, 123.115009)"><g><path d="M 1.71875 0 L 2.90625 0 L 2.90625 -0.351562 L 2.53125 -0.351562 L 2.53125 -4.078125 L 3.859375 -4.078125 L 3.859375 -3.65625 L 4.191406 -3.65625 L 4.191406 -4.476562 L 0.40625 -4.476562 L 0.40625 -3.65625 L 0.742188 -3.65625 L 0.742188 -4.078125 L 2.101562 -4.078125 L 2.101562 -0.351562 L 1.71875 -0.351562 Z M 1.71875 0 "/></g></g></g><g fill="#000000" fill-opacity="1"><g transform="translate(120.220463, 123.115009)"><g><path d="M 2.6875 0.0390625 C 3.363281 0.0390625 4.558594 -0.03125 4.558594 -1.261719 L 4.558594 -4.117188 L 4.914062 -4.117188 L 4.914062 -4.476562 L 3.6875 -4.476562 L 3.6875 -4.117188 L 4.125 -4.117188 L 4.125 -1.359375 C 4.125 -0.351562 3.132812 -0.351562 2.6875 -0.351562 C 2.253906 -0.351562 1.277344 -0.351562 1.277344 -1.359375 L 1.277344 -4.117188 L 1.726562 -4.117188 L 1.726562 -4.476562 L 0.488281 -4.476562 L 0.488281 -4.117188 L 0.847656 -4.117188 L 0.847656 -1.261719 C 0.847656 -0.03125 2.035156 0.0390625 2.6875 0.0390625 Z M 2.6875 0.0390625 "/></g></g></g><g fill="#000000" fill-opacity="1"><g transform="translate(126.650389, 123.115009)"><g><path d="M 0.527344 0 L 2.785156 0 C 3.394531 0 4.394531 -0.269531 4.394531 -1.503906 L 4.394531 -2.9375 C 4.394531 -4.183594 3.394531 -4.476562 2.785156 -4.476562 L 0.527344 -4.476562 L 0.527344 -4.117188 L 0.9375 -4.117188 L 0.9375 -0.351562 L 0.527344 -0.351562 Z M 1.367188 -0.390625 L 1.367188 -4.078125 L 2.589844 -4.078125 C 2.808594 -4.078125 3.964844 -4.070312 3.964844 -2.9375 L 3.964844 -1.554688 C 3.964844 -0.382812 2.808594 -0.390625 2.589844 -0.390625 Z M 1.367188 -0.390625 "/></g></g></g><g fill="#000000" fill-opacity="1"><g transform="translate(132.600106, 123.115009)"><g><path d="M 0.527344 0 L 1.675781 0 L 1.675781 -0.351562 L 1.320312 -0.351562 L 1.320312 -4.117188 L 1.675781 -4.117188 L 1.675781 -4.476562 L 0.527344 -4.476562 L 0.527344 -4.117188 L 0.886719 -4.117188 L 0.886719 -0.351562 L 0.527344 -0.351562 Z M 0.527344 0 "/></g></g></g><g fill="#000000" fill-opacity="1"><g transform="translate(135.831347, 123.115009)"><g><path d="M 2.375 0.0390625 C 3.027344 0.0390625 4.214844 -0.0234375 4.214844 -1.253906 L 4.214844 -3.214844 C 4.214844 -4.3125 3.027344 -4.515625 2.375 -4.515625 C 1.726562 -4.515625 0.527344 -4.3125 0.527344 -3.214844 L 0.527344 -1.253906 C 0.527344 -0.0234375 1.726562 0.0390625 2.375 0.0390625 Z M 2.375 -0.351562 C 1.921875 -0.351562 0.960938 -0.351562 0.960938 -1.359375 L 0.960938 -3.15625 C 0.960938 -4.109375 2.132812 -4.117188 2.382812 -4.117188 C 2.613281 -4.117188 3.785156 -4.117188 3.785156 -3.15625 L 3.785156 -1.359375 C 3.785156 -0.351562 2.824219 -0.351562 2.375 -0.351562 Z M 2.375 -0.351562 "/></g></g></g><g fill="#000000" fill-opacity="1"><g transform="translate(141.601998, 123.115009)"><g><path d="M 2.304688 0.0390625 C 3.125 0.0390625 4.0625 0.0390625 4.0625 -1.15625 C 4.0625 -2.246094 1.007812 -2.269531 1.007812 -3.3125 C 1.007812 -3.777344 1.328125 -4.117188 2.304688 -4.117188 C 2.351562 -4.117188 3.28125 -4.078125 3.644531 -3.972656 L 3.644531 -3.558594 L 3.980469 -3.558594 L 3.980469 -4.339844 C 3.679688 -4.402344 2.847656 -4.515625 2.296875 -4.515625 C 1.425781 -4.515625 0.578125 -4.214844 0.578125 -3.3125 C 0.578125 -1.816406 3.628906 -1.855469 3.628906 -1.089844 C 3.628906 -0.351562 2.914062 -0.351562 2.304688 -0.351562 C 1.90625 -0.351562 1.40625 -0.398438 0.863281 -0.636719 L 0.863281 -0.976562 L 0.527344 -0.976562 L 0.527344 -0.316406 C 0.910156 -0.113281 1.585938 0.0390625 2.304688 0.0390625 Z M 2.304688 0.0390625 "/></g></g></g></svg>