<svg xmlns="http://www.w3.org/2000/svg" xmlns:xlink="http://www.w3.org/1999/xlink" width="300" zoomAndPan="magnify" viewBox="0 0 224.87999 225" height="300" preserveAspectRatio="xMidYMid meet" version="1.0"><defs><g/><clipPath id="id1"><path d="M 0 0.0585938 L 224.761719 0.0585938 L 224.761719 224.9375 L 0 224.9375 Z M 0 0.0585938 " clip-rule="nonzero"/></clipPath><clipPath id="id2"><path d="M 36.054688 26.199219 L 179.976562 26.199219 L 179.976562 65.179688 L 36.054688 65.179688 Z M 36.054688 26.199219 " clip-rule="nonzero"/></clipPath></defs><g clip-path="url(#id1)"><path fill="#ffffff" d="M 0 0.0585938 L 224.878906 0.0585938 L 224.878906 232.4375 L 0 232.4375 Z M 0 0.0585938 " fill-opacity="1" fill-rule="nonzero"/><path fill="#ffffff" d="M 0 0.0585938 L 224.878906 0.0585938 L 224.878906 224.941406 L 0 224.941406 Z M 0 0.0585938 " fill-opacity="1" fill-rule="nonzero"/><path fill="#ffffff" d="M 0 0.0585938 L 224.878906 0.0585938 L 224.878906 224.941406 L 0 224.941406 Z M 0 0.0585938 " fill-opacity="1" fill-rule="nonzero"/><path fill="#ffffff" d="M 0 0.0585938 L 224.878906 0.0585938 L 224.878906 224.941406 L 0 224.941406 Z M 0 0.0585938 " fill-opacity="1" fill-rule="nonzero"/></g><g clip-path="url(#id2)"><path fill="#fff952" d="M 36.054688 26.199219 L 179.976562 26.199219 L 179.976562 65.179688 L 36.054688 65.179688 Z M 36.054688 26.199219 " fill-opacity="1" fill-rule="nonzero"/></g><g fill="#000000" fill-opacity="1"><g transform="translate(46.106201, 57.54304)"><g><path d="M 16.75 -4.375 C 16.75 -2.613281 16.816406 -1.15625 16.953125 0 C 15.648438 -0.0625 13.453125 -0.09375 10.359375 -0.09375 C 6.179688 -0.09375 3.054688 -0.0625 0.984375 0 L 0.984375 -0.578125 C 1.609375 -0.617188 2.070312 -0.695312 2.375 -0.8125 C 2.675781 -0.925781 2.878906 -1.144531 2.984375 -1.46875 C 3.085938 -1.789062 3.140625 -2.316406 3.140625 -3.046875 L 3.140625 -17.328125 C 3.140625 -18.054688 3.085938 -18.582031 2.984375 -18.90625 C 2.878906 -19.238281 2.675781 -19.460938 2.375 -19.578125 C 2.070312 -19.691406 1.609375 -19.765625 0.984375 -19.796875 L 0.984375 -20.375 C 3.054688 -20.320312 6.179688 -20.296875 10.359375 -20.296875 C 13.179688 -20.296875 15.1875 -20.320312 16.375 -20.375 C 16.238281 -18.78125 16.171875 -17.363281 16.171875 -16.125 C 16.171875 -15.269531 16.203125 -14.613281 16.265625 -14.15625 L 15.59375 -14.15625 C 15.3125 -16.207031 14.796875 -17.644531 14.046875 -18.46875 C 13.296875 -19.300781 12.238281 -19.71875 10.875 -19.71875 L 9.703125 -19.71875 C 9.109375 -19.71875 8.675781 -19.664062 8.40625 -19.5625 C 8.132812 -19.46875 7.953125 -19.28125 7.859375 -19 C 7.765625 -18.726562 7.71875 -18.285156 7.71875 -17.671875 L 7.71875 -10.53125 L 8.640625 -10.53125 C 9.648438 -10.53125 10.421875 -10.90625 10.953125 -11.65625 C 11.484375 -12.40625 11.851562 -13.296875 12.0625 -14.328125 L 12.71875 -14.328125 C 12.664062 -13.523438 12.640625 -12.625 12.640625 -11.625 L 12.640625 -10.25 C 12.640625 -9.269531 12.695312 -7.90625 12.8125 -6.15625 L 12.140625 -6.15625 C 11.742188 -8.6875 10.578125 -9.953125 8.640625 -9.953125 L 7.71875 -9.953125 L 7.71875 -2.703125 C 7.71875 -2.085938 7.765625 -1.640625 7.859375 -1.359375 C 7.953125 -1.085938 8.132812 -0.898438 8.40625 -0.796875 C 8.675781 -0.703125 9.109375 -0.65625 9.703125 -0.65625 L 11.109375 -0.65625 C 12.472656 -0.65625 13.570312 -1.117188 14.40625 -2.046875 C 15.238281 -2.984375 15.828125 -4.566406 16.171875 -6.796875 L 16.84375 -6.796875 C 16.78125 -6.160156 16.75 -5.351562 16.75 -4.375 Z M 16.75 -4.375 "/></g></g></g><g fill="#000000" fill-opacity="1"><g transform="translate(64.35563, 57.54304)"><g><path d="M 11.015625 -15.28125 C 12.015625 -15.28125 12.898438 -15.007812 13.671875 -14.46875 C 14.453125 -13.9375 15.0625 -13.132812 15.5 -12.0625 C 15.945312 -10.988281 16.171875 -9.671875 16.171875 -8.109375 C 16.171875 -5.367188 15.570312 -3.265625 14.375 -1.796875 C 13.175781 -0.328125 11.550781 0.40625 9.5 0.40625 C 8.925781 0.40625 8.382812 0.328125 7.875 0.171875 C 7.363281 0.015625 6.925781 -0.210938 6.5625 -0.515625 L 6.5625 2.359375 C 6.5625 3.203125 6.769531 3.785156 7.1875 4.109375 C 7.613281 4.441406 8.269531 4.609375 9.15625 4.609375 L 9.15625 5.203125 L 8.375 5.1875 C 6.25 5.125 4.894531 5.09375 4.3125 5.09375 C 3.738281 5.09375 2.53125 5.128906 0.6875 5.203125 L 0.6875 4.609375 C 1.320312 4.609375 1.769531 4.46875 2.03125 4.1875 C 2.289062 3.90625 2.421875 3.390625 2.421875 2.640625 L 2.421875 -11.75 C 2.421875 -12.625 2.28125 -13.265625 2 -13.671875 C 1.71875 -14.078125 1.242188 -14.28125 0.578125 -14.28125 L 0.578125 -14.875 C 1.191406 -14.820312 1.785156 -14.796875 2.359375 -14.796875 C 4.023438 -14.796875 5.425781 -14.929688 6.5625 -15.203125 L 6.5625 -12.546875 C 6.96875 -13.429688 7.550781 -14.109375 8.3125 -14.578125 C 9.082031 -15.046875 9.984375 -15.28125 11.015625 -15.28125 Z M 8.375 -0.375 C 9.601562 -0.375 10.484375 -0.984375 11.015625 -2.203125 C 11.554688 -3.421875 11.828125 -5.203125 11.828125 -7.546875 C 11.828125 -9.878906 11.609375 -11.546875 11.171875 -12.546875 C 10.742188 -13.546875 10.128906 -14.046875 9.328125 -14.046875 C 8.671875 -14.046875 8.085938 -13.820312 7.578125 -13.375 C 7.078125 -12.9375 6.738281 -12.328125 6.5625 -11.546875 L 6.5625 -1.15625 C 7.019531 -0.632812 7.625 -0.375 8.375 -0.375 Z M 8.375 -0.375 "/></g></g></g><g fill="#000000" fill-opacity="1"><g transform="translate(81.626383, 57.54304)"><g><path d="M 4.4375 -22.3125 C 5.238281 -22.3125 5.875 -22.113281 6.34375 -21.71875 C 6.8125 -21.320312 7.046875 -20.78125 7.046875 -20.09375 C 7.046875 -19.394531 6.8125 -18.847656 6.34375 -18.453125 C 5.875 -18.066406 5.238281 -17.875 4.4375 -17.875 C 3.625 -17.875 2.984375 -18.066406 2.515625 -18.453125 C 2.046875 -18.847656 1.8125 -19.394531 1.8125 -20.09375 C 1.8125 -20.78125 2.046875 -21.320312 2.515625 -21.71875 C 2.984375 -22.113281 3.625 -22.3125 4.4375 -22.3125 Z M 6.671875 -2.671875 C 6.671875 -1.890625 6.8125 -1.347656 7.09375 -1.046875 C 7.375 -0.753906 7.847656 -0.609375 8.515625 -0.609375 L 8.515625 0 C 6.597656 -0.0703125 5.320312 -0.109375 4.6875 -0.109375 C 4.09375 -0.109375 2.757812 -0.0703125 0.6875 0 L 0.6875 -0.609375 C 1.382812 -0.609375 1.863281 -0.753906 2.125 -1.046875 C 2.394531 -1.347656 2.53125 -1.890625 2.53125 -2.671875 L 2.53125 -11.75 C 2.53125 -12.625 2.394531 -13.265625 2.125 -13.671875 C 1.863281 -14.078125 1.382812 -14.28125 0.6875 -14.28125 L 0.6875 -14.875 C 1.300781 -14.820312 1.894531 -14.796875 2.46875 -14.796875 C 4.175781 -14.796875 5.578125 -14.929688 6.671875 -15.203125 Z M 6.671875 -2.671875 "/></g></g></g><g fill="#000000" fill-opacity="1"><g transform="translate(90.693533, 57.54304)"><g><path d="M 6.390625 -15.28125 C 7.117188 -15.28125 7.789062 -15.1875 8.40625 -15 C 9.019531 -14.820312 9.488281 -14.617188 9.8125 -14.390625 C 10.007812 -14.253906 10.179688 -14.1875 10.328125 -14.1875 C 10.503906 -14.1875 10.65625 -14.273438 10.78125 -14.453125 C 10.90625 -14.640625 10.984375 -14.90625 11.015625 -15.25 L 11.625 -15.25 C 11.550781 -14.269531 11.515625 -12.582031 11.515625 -10.1875 L 10.90625 -10.1875 C 10.738281 -11.457031 10.359375 -12.519531 9.765625 -13.375 C 9.179688 -14.226562 8.332031 -14.65625 7.21875 -14.65625 C 6.644531 -14.65625 6.171875 -14.488281 5.796875 -14.15625 C 5.421875 -13.832031 5.234375 -13.382812 5.234375 -12.8125 C 5.234375 -12.15625 5.453125 -11.59375 5.890625 -11.125 C 6.335938 -10.65625 7.03125 -10.082031 7.96875 -9.40625 L 8.8125 -8.8125 C 9.976562 -7.925781 10.835938 -7.132812 11.390625 -6.4375 C 11.953125 -5.75 12.234375 -4.890625 12.234375 -3.859375 C 12.234375 -3.015625 11.988281 -2.265625 11.5 -1.609375 C 11.007812 -0.960938 10.347656 -0.460938 9.515625 -0.109375 C 8.691406 0.234375 7.785156 0.40625 6.796875 0.40625 C 5.734375 0.40625 4.832031 0.203125 4.09375 -0.203125 C 3.476562 -0.503906 3.035156 -0.707031 2.765625 -0.8125 C 2.566406 -0.863281 2.394531 -0.796875 2.25 -0.609375 C 2.113281 -0.429688 2.003906 -0.160156 1.921875 0.203125 L 1.328125 0.203125 C 1.398438 -0.890625 1.4375 -2.8125 1.4375 -5.5625 L 2.046875 -5.5625 C 2.429688 -2.03125 3.722656 -0.265625 5.921875 -0.265625 C 6.484375 -0.265625 6.957031 -0.429688 7.34375 -0.765625 C 7.738281 -1.097656 7.9375 -1.609375 7.9375 -2.296875 C 7.9375 -2.835938 7.816406 -3.316406 7.578125 -3.734375 C 7.335938 -4.160156 7.035156 -4.535156 6.671875 -4.859375 C 6.304688 -5.191406 5.757812 -5.644531 5.03125 -6.21875 C 4.164062 -6.90625 3.507812 -7.457031 3.0625 -7.875 C 2.613281 -8.300781 2.226562 -8.800781 1.90625 -9.375 C 1.59375 -9.957031 1.4375 -10.601562 1.4375 -11.3125 C 1.4375 -12.539062 1.914062 -13.507812 2.875 -14.21875 C 3.832031 -14.925781 5.003906 -15.28125 6.390625 -15.28125 Z M 6.390625 -15.28125 "/></g></g></g><g fill="#000000" fill-opacity="1"><g transform="translate(103.992012, 57.54304)"><g><path d="M 8.109375 -15.28125 C 10.316406 -15.28125 12.046875 -14.648438 13.296875 -13.390625 C 14.546875 -12.140625 15.171875 -10.148438 15.171875 -7.421875 C 15.171875 -4.703125 14.546875 -2.71875 13.296875 -1.46875 C 12.046875 -0.21875 10.316406 0.40625 8.109375 0.40625 C 5.921875 0.40625 4.195312 -0.21875 2.9375 -1.46875 C 1.6875 -2.71875 1.0625 -4.703125 1.0625 -7.421875 C 1.0625 -10.148438 1.6875 -12.140625 2.9375 -13.390625 C 4.195312 -14.648438 5.921875 -15.28125 8.109375 -15.28125 Z M 8.109375 -14.703125 C 7.285156 -14.703125 6.628906 -14.101562 6.140625 -12.90625 C 5.648438 -11.707031 5.40625 -9.878906 5.40625 -7.421875 C 5.40625 -4.960938 5.648438 -3.140625 6.140625 -1.953125 C 6.628906 -0.765625 7.285156 -0.171875 8.109375 -0.171875 C 8.953125 -0.171875 9.613281 -0.757812 10.09375 -1.9375 C 10.582031 -3.125 10.828125 -4.953125 10.828125 -7.421875 C 10.828125 -9.898438 10.582031 -11.734375 10.09375 -12.921875 C 9.601562 -14.109375 8.941406 -14.703125 8.109375 -14.703125 Z M 8.109375 -14.703125 "/></g></g></g><g fill="#000000" fill-opacity="1"><g transform="translate(120.255307, 57.54304)"><g><path d="M 14.84375 -3.171875 C 14.84375 -2.285156 14.976562 -1.640625 15.25 -1.234375 C 15.519531 -0.835938 16 -0.640625 16.6875 -0.640625 L 16.6875 -0.03125 C 16.09375 -0.0820312 15.5 -0.109375 14.90625 -0.109375 C 13.195312 -0.109375 11.796875 0.0195312 10.703125 0.28125 L 10.703125 -2.1875 C 10.054688 -0.457031 8.8125 0.40625 6.96875 0.40625 C 5.164062 0.40625 3.726562 -0.25 2.65625 -1.5625 C 1.59375 -2.882812 1.070312 -4.867188 1.09375 -7.515625 C 1.09375 -9.203125 1.363281 -10.625 1.90625 -11.78125 C 2.457031 -12.945312 3.21875 -13.820312 4.1875 -14.40625 C 5.15625 -14.988281 6.265625 -15.28125 7.515625 -15.28125 C 8.910156 -15.28125 9.972656 -14.914062 10.703125 -14.1875 L 10.703125 -19.078125 C 10.703125 -19.960938 10.5625 -20.601562 10.28125 -21 C 10.007812 -21.40625 9.535156 -21.609375 8.859375 -21.609375 L 8.859375 -22.21875 C 9.472656 -22.15625 10.070312 -22.125 10.65625 -22.125 C 12.320312 -22.125 13.71875 -22.257812 14.84375 -22.53125 Z M 8.140625 -0.828125 C 8.773438 -0.828125 9.335938 -1.054688 9.828125 -1.515625 C 10.316406 -1.984375 10.609375 -2.609375 10.703125 -3.390625 L 10.703125 -13.46875 C 10.222656 -14.125 9.523438 -14.453125 8.609375 -14.453125 C 7.585938 -14.453125 6.796875 -13.863281 6.234375 -12.6875 C 5.679688 -11.519531 5.414062 -9.773438 5.4375 -7.453125 C 5.414062 -5.109375 5.640625 -3.414062 6.109375 -2.375 C 6.585938 -1.34375 7.265625 -0.828125 8.140625 -0.828125 Z M 8.140625 -0.828125 "/></g></g></g><g fill="#000000" fill-opacity="1"><g transform="translate(137.468496, 57.54304)"><g><path d="M 9.15625 -1.953125 C 10.726562 -1.953125 11.992188 -2.722656 12.953125 -4.265625 L 13.46875 -4.09375 C 13.082031 -2.84375 12.394531 -1.78125 11.40625 -0.90625 C 10.414062 -0.03125 9.1875 0.40625 7.71875 0.40625 C 5.675781 0.40625 4.054688 -0.238281 2.859375 -1.53125 C 1.660156 -2.832031 1.0625 -4.75 1.0625 -7.28125 C 1.0625 -9.875 1.703125 -11.851562 2.984375 -13.21875 C 4.273438 -14.59375 5.984375 -15.28125 8.109375 -15.28125 C 11.722656 -15.28125 13.53125 -13.148438 13.53125 -8.890625 L 5.4375 -8.890625 C 5.414062 -8.609375 5.40625 -8.160156 5.40625 -7.546875 C 5.40625 -6.273438 5.582031 -5.21875 5.9375 -4.375 C 6.289062 -3.53125 6.75 -2.914062 7.3125 -2.53125 C 7.882812 -2.144531 8.5 -1.953125 9.15625 -1.953125 Z M 7.9375 -14.671875 C 7.25 -14.671875 6.679688 -14.242188 6.234375 -13.390625 C 5.785156 -12.535156 5.5 -11.21875 5.375 -9.4375 L 9.90625 -9.4375 C 9.9375 -10.957031 9.785156 -12.207031 9.453125 -13.1875 C 9.117188 -14.175781 8.613281 -14.671875 7.9375 -14.671875 Z M 7.9375 -14.671875 "/></g></g></g><g fill="#000000" fill-opacity="1"><g transform="translate(151.975932, 57.54304)"><g/></g></g><g fill="#000000" fill-opacity="1"><g transform="translate(158.68274, 57.54304)"><g><path d="M 8.109375 -2.796875 C 8.109375 -1.960938 8.257812 -1.390625 8.5625 -1.078125 C 8.875 -0.765625 9.414062 -0.609375 10.1875 -0.609375 L 10.1875 0 C 8.113281 -0.0703125 6.789062 -0.109375 6.21875 -0.109375 C 5.582031 -0.109375 4.203125 -0.0820312 2.078125 -0.03125 L 1.265625 0 L 1.265625 -0.609375 C 2.171875 -0.609375 2.847656 -0.78125 3.296875 -1.125 C 3.742188 -1.46875 3.96875 -2.082031 3.96875 -2.96875 L 3.96875 -9.984375 C 3.96875 -10.910156 3.882812 -11.585938 3.71875 -12.015625 C 3.5625 -12.441406 3.289062 -12.726562 2.90625 -12.875 C 2.519531 -13.019531 1.9375 -13.09375 1.15625 -13.09375 L 1.15625 -13.734375 C 2.820312 -13.765625 4.191406 -13.890625 5.265625 -14.109375 C 6.335938 -14.335938 7.285156 -14.703125 8.109375 -15.203125 Z M 8.109375 -2.796875 "/></g></g></g><g fill="#000000" fill-opacity="1"><g transform="translate(23.154097, 141.279973)"><g><path d="M 6.65625 -27.828125 L 6.046875 -18.75 L 4.84375 0 L 2.421875 0 L 0.609375 -32.671875 L 3.03125 -32.671875 L 3.625 -9.6875 L 5.4375 -32.671875 L 7.859375 -32.671875 L 9.6875 -9.6875 L 10.28125 -32.671875 L 12.703125 -32.671875 L 10.890625 0 L 8.46875 0 L 7.265625 -18.75 Z M 6.65625 -27.828125 "/></g></g></g><g fill="#000000" fill-opacity="1"><g transform="translate(43.662357, 141.279973)"><g><path d="M 3.625 -17.546875 L 6.046875 -17.546875 L 6.046875 -32.671875 L 8.46875 -32.671875 L 8.46875 0 L 6.046875 0 L 6.046875 -15.734375 L 3.625 -15.734375 L 3.625 0 L 1.203125 0 L 1.203125 -32.671875 L 3.625 -32.671875 Z M 3.625 -17.546875 "/></g></g></g><g fill="#000000" fill-opacity="1"><g transform="translate(60.541572, 141.279973)"><g><path d="M 7.859375 0 L 5.4375 0 L 5.140625 -7.859375 L 3.34375 -7.859375 L 3.03125 0 L 0.609375 0 L 2.421875 -32.671875 L 6.046875 -32.671875 Z M 4.84375 -16.9375 L 4.234375 -31.453125 L 3.625 -16.9375 L 3.34375 -9.6875 L 5.140625 -9.6875 Z M 4.84375 -16.9375 "/></g></g></g><g fill="#000000" fill-opacity="1"><g transform="translate(76.211106, 141.279973)"><g><path d="M 7.859375 -32.671875 L 7.859375 -30.859375 L 5.4375 -30.859375 L 5.4375 0 L 3.03125 0 L 3.03125 -30.859375 L 0.609375 -30.859375 L 0.609375 -32.671875 Z M 7.859375 -32.671875 "/></g></g></g><g fill="#000000" fill-opacity="1"><g transform="translate(91.880639, 141.279973)"><g/></g></g><g fill="#000000" fill-opacity="1"><g transform="translate(103.56201, 141.279973)"><g><path d="M 7.859375 -32.671875 L 10.28125 -32.671875 L 10.890625 0 L 8.46875 0 L 8.46875 -22.390625 L 6.65625 -1.8125 L 5.4375 -1.8125 L 3.625 -22.390625 L 3.625 0 L 1.203125 0 L 1.8125 -32.671875 L 4.234375 -32.671875 L 6.046875 -10.28125 Z M 7.859375 -32.671875 "/></g></g></g><g fill="#000000" fill-opacity="1"><g transform="translate(122.860588, 141.279973)"><g><path d="M 7.859375 0 L 5.4375 0 L 5.140625 -7.859375 L 3.34375 -7.859375 L 3.03125 0 L 0.609375 0 L 2.421875 -32.671875 L 6.046875 -32.671875 Z M 4.84375 -16.9375 L 4.234375 -31.453125 L 3.625 -16.9375 L 3.34375 -9.6875 L 5.140625 -9.6875 Z M 4.84375 -16.9375 "/></g></g></g><g fill="#000000" fill-opacity="1"><g transform="translate(138.530128, 141.279973)"><g><path d="M 8.46875 0 L 6.046875 0 L 3.625 -16.328125 L 3.625 0 L 1.203125 0 L 1.203125 -32.671875 L 3.625 -32.671875 L 3.625 -17.546875 L 6.046875 -32.671875 L 8.46875 -32.671875 L 6.046875 -18.75 L 5.78125 -16.9375 L 6.046875 -15.125 Z M 8.46875 0 "/></g></g></g><g fill="#000000" fill-opacity="1"><g transform="translate(154.804508, 141.279973)"><g><path d="M 6.65625 -30.859375 L 3.625 -30.859375 L 3.625 -18.15625 L 6.046875 -18.15625 L 6.046875 -16.328125 L 3.625 -16.328125 L 3.625 -1.8125 L 6.65625 -1.8125 L 6.65625 0 L 1.203125 0 L 1.203125 -32.671875 L 6.65625 -32.671875 Z M 6.65625 -30.859375 "/></g></g></g><g fill="#000000" fill-opacity="1"><g transform="translate(169.264365, 141.279973)"><g><path d="M 5.4375 -7.953125 C 5.4375 -9.296875 5.367188 -10.445312 5.234375 -11.40625 C 5.097656 -12.363281 4.914062 -13.195312 4.6875 -13.90625 C 4.457031 -14.613281 4.195312 -15.234375 3.90625 -15.765625 C 3.625 -16.296875 3.332031 -16.789062 3.03125 -17.25 C 2.726562 -17.71875 2.429688 -18.1875 2.140625 -18.65625 C 1.847656 -19.125 1.585938 -19.65625 1.359375 -20.25 C 1.128906 -20.84375 0.945312 -21.523438 0.8125 -22.296875 C 0.675781 -23.078125 0.609375 -24.007812 0.609375 -25.09375 L 0.609375 -29.640625 C 0.609375 -29.941406 0.65625 -30.285156 0.75 -30.671875 C 0.84375 -31.054688 1.019531 -31.414062 1.28125 -31.75 C 1.550781 -32.082031 1.921875 -32.363281 2.390625 -32.59375 C 2.859375 -32.832031 3.472656 -32.953125 4.234375 -32.953125 C 4.992188 -32.953125 5.609375 -32.832031 6.078125 -32.59375 C 6.546875 -32.363281 6.910156 -32.082031 7.171875 -31.75 C 7.441406 -31.414062 7.625 -31.054688 7.71875 -30.671875 C 7.8125 -30.285156 7.859375 -29.941406 7.859375 -29.640625 L 7.859375 -21.171875 L 5.4375 -21.171875 L 5.4375 -29.640625 C 5.4375 -29.941406 5.398438 -30.191406 5.328125 -30.390625 C 5.265625 -30.585938 5.175781 -30.738281 5.0625 -30.84375 C 4.945312 -30.945312 4.816406 -31.019531 4.671875 -31.0625 C 4.535156 -31.113281 4.390625 -31.140625 4.234375 -31.140625 C 4.085938 -31.140625 3.941406 -31.113281 3.796875 -31.0625 C 3.648438 -31.019531 3.519531 -30.945312 3.40625 -30.84375 C 3.289062 -30.738281 3.195312 -30.585938 3.125 -30.390625 C 3.0625 -30.191406 3.03125 -29.941406 3.03125 -29.640625 L 3.03125 -25.953125 C 3.03125 -24.535156 3.148438 -23.347656 3.390625 -22.390625 C 3.628906 -21.429688 3.925781 -20.59375 4.28125 -19.875 C 4.644531 -19.164062 5.03125 -18.519531 5.4375 -17.9375 C 5.851562 -17.363281 6.238281 -16.738281 6.59375 -16.0625 C 6.957031 -15.382812 7.257812 -14.601562 7.5 -13.71875 C 7.738281 -12.832031 7.859375 -11.722656 7.859375 -10.390625 L 7.859375 -3.03125 C 7.859375 -2.875 7.835938 -2.597656 7.796875 -2.203125 C 7.765625 -1.804688 7.632812 -1.398438 7.40625 -0.984375 C 7.1875 -0.566406 6.828125 -0.195312 6.328125 0.125 C 5.835938 0.445312 5.140625 0.609375 4.234375 0.609375 C 3.328125 0.609375 2.628906 0.445312 2.140625 0.125 C 1.648438 -0.195312 1.289062 -0.566406 1.0625 -0.984375 C 0.832031 -1.398438 0.695312 -1.804688 0.65625 -2.203125 C 0.625 -2.597656 0.609375 -2.875 0.609375 -3.03125 L 0.609375 -13.921875 L 3.03125 -13.921875 L 3.03125 -3.03125 C 3.03125 -2.875 3.035156 -2.691406 3.046875 -2.484375 C 3.054688 -2.273438 3.097656 -2.078125 3.171875 -1.890625 C 3.253906 -1.703125 3.375 -1.539062 3.53125 -1.40625 C 3.695312 -1.269531 3.929688 -1.203125 4.234375 -1.203125 C 4.535156 -1.203125 4.769531 -1.269531 4.9375 -1.40625 C 5.101562 -1.539062 5.222656 -1.703125 5.296875 -1.890625 C 5.367188 -2.078125 5.410156 -2.273438 5.421875 -2.484375 C 5.429688 -2.691406 5.4375 -2.875 5.4375 -3.03125 Z M 5.4375 -7.953125 "/></g></g></g><g fill="#000000" fill-opacity="1"><g transform="translate(184.933905, 141.279973)"><g/></g></g><g fill="#000000" fill-opacity="1"><g transform="translate(196.615281, 141.279973)"><g><path d="M 4.84375 -4.84375 L 2.421875 -4.84375 L 2.421875 -10.28125 C 2.421875 -11.632812 2.476562 -12.765625 2.59375 -13.671875 C 2.71875 -14.578125 2.867188 -15.367188 3.046875 -16.046875 C 3.222656 -16.734375 3.414062 -17.363281 3.625 -17.9375 C 3.84375 -18.507812 4.039062 -19.128906 4.21875 -19.796875 C 4.394531 -20.460938 4.539062 -21.234375 4.65625 -22.109375 C 4.78125 -22.992188 4.84375 -24.09375 4.84375 -25.40625 L 4.84375 -29.640625 C 4.84375 -30.191406 4.742188 -30.601562 4.546875 -30.875 C 4.359375 -31.144531 4.144531 -31.28125 3.90625 -31.28125 C 3.695312 -31.28125 3.5 -31.144531 3.3125 -30.875 C 3.125 -30.601562 3.03125 -30.191406 3.03125 -29.640625 L 3.03125 -21.171875 L 0.609375 -21.171875 L 0.609375 -29.640625 C 0.609375 -30.242188 0.703125 -30.769531 0.890625 -31.21875 C 1.078125 -31.675781 1.328125 -32.054688 1.640625 -32.359375 C 1.960938 -32.660156 2.320312 -32.890625 2.71875 -33.046875 C 3.113281 -33.203125 3.519531 -33.28125 3.9375 -33.28125 C 4.351562 -33.28125 4.757812 -33.203125 5.15625 -33.046875 C 5.550781 -32.890625 5.90625 -32.660156 6.21875 -32.359375 C 6.53125 -32.054688 6.78125 -31.675781 6.96875 -31.21875 C 7.164062 -30.769531 7.265625 -30.242188 7.265625 -29.640625 L 7.265625 -25.40625 C 7.265625 -24.351562 7.226562 -23.445312 7.15625 -22.6875 C 7.082031 -21.925781 6.988281 -21.257812 6.875 -20.6875 C 6.769531 -20.113281 6.644531 -19.597656 6.5 -19.140625 C 6.351562 -18.679688 6.203125 -18.222656 6.046875 -17.765625 C 5.898438 -17.304688 5.753906 -16.8125 5.609375 -16.28125 C 5.460938 -15.757812 5.332031 -15.140625 5.21875 -14.421875 C 5.101562 -13.703125 5.007812 -12.863281 4.9375 -11.90625 C 4.875 -10.945312 4.84375 -9.800781 4.84375 -8.46875 Z M 4.84375 -2.421875 L 4.84375 0 L 2.421875 0 L 2.421875 -2.421875 Z M 4.84375 -2.421875 "/></g></g></g><g fill="#000000" fill-opacity="1"><g transform="translate(122.823527, 154.4208)"><g><path d="M 0.324219 0 L 1.523438 0 L 1.523438 -0.351562 L 1.125 -0.351562 L 1.59375 -1.5625 L 3.613281 -1.5625 L 4.085938 -0.351562 L 3.6875 -0.351562 L 3.6875 0 L 4.882812 0 L 4.882812 -0.351562 L 4.550781 -0.351562 L 2.9375 -4.476562 L 1.628906 -4.476562 L 1.628906 -4.117188 L 2.132812 -4.117188 L 0.660156 -0.351562 L 0.324219 -0.351562 Z M 1.75 -1.960938 L 2.605469 -4.125 L 3.460938 -1.960938 Z M 1.75 -1.960938 "/></g></g></g><g fill="#000000" fill-opacity="1"><g transform="translate(129.05811, 154.4208)"><g><path d="M 0.527344 0 L 1.808594 0 L 1.808594 -0.351562 L 1.351562 -0.351562 L 1.351562 -1.734375 L 2.605469 -1.734375 C 4.117188 -1.734375 4.125 -2.800781 4.125 -3.183594 C 4.125 -4.214844 3.410156 -4.476562 2.816406 -4.476562 L 0.527344 -4.476562 L 0.527344 -4.117188 L 0.917969 -4.117188 L 0.917969 -0.351562 L 0.527344 -0.351562 Z M 1.351562 -2.132812 L 1.351562 -4.078125 L 2.679688 -4.078125 C 3.035156 -4.078125 3.695312 -4.078125 3.695312 -3.191406 C 3.695312 -2.734375 3.695312 -2.132812 2.621094 -2.132812 Z M 1.351562 -2.132812 "/></g></g></g><g fill="#000000" fill-opacity="1"><g transform="translate(134.576452, 154.4208)"><g><path d="M 1.261719 0.0390625 C 1.878906 0.0390625 2.757812 -0.0976562 2.757812 -0.917969 L 2.757812 -4.476562 L 1.40625 -4.476562 L 1.40625 -4.117188 L 2.328125 -4.117188 L 2.328125 -1.015625 C 2.328125 -0.40625 1.570312 -0.351562 1.285156 -0.351562 C 1.113281 -0.351562 0.625 -0.398438 0.292969 -0.511719 L 0.203125 -0.113281 C 0.527344 0.0390625 1.132812 0.0390625 1.261719 0.0390625 Z M 1.261719 0.0390625 "/></g></g></g><g fill="#000000" fill-opacity="1"><g transform="translate(139.012279, 154.4208)"><g><path d="M 2.375 0.0390625 C 3.027344 0.0390625 4.214844 -0.0234375 4.214844 -1.253906 L 4.214844 -3.214844 C 4.214844 -4.3125 3.027344 -4.515625 2.375 -4.515625 C 1.726562 -4.515625 0.527344 -4.3125 0.527344 -3.214844 L 0.527344 -1.253906 C 0.527344 -0.0234375 1.726562 0.0390625 2.375 0.0390625 Z M 2.375 -0.351562 C 1.921875 -0.351562 0.960938 -0.351562 0.960938 -1.359375 L 0.960938 -3.15625 C 0.960938 -4.109375 2.132812 -4.117188 2.382812 -4.117188 C 2.613281 -4.117188 3.785156 -4.117188 3.785156 -3.15625 L 3.785156 -1.359375 C 3.785156 -0.351562 2.824219 -0.351562 2.375 -0.351562 Z M 2.375 -0.351562 "/></g></g></g><g fill="#000000" fill-opacity="1"><g transform="translate(144.78293, 154.4208)"><g><path d="M 1.71875 0 L 2.90625 0 L 2.90625 -0.351562 L 2.53125 -0.351562 L 2.53125 -4.078125 L 3.859375 -4.078125 L 3.859375 -3.65625 L 4.191406 -3.65625 L 4.191406 -4.476562 L 0.40625 -4.476562 L 0.40625 -3.65625 L 0.742188 -3.65625 L 0.742188 -4.078125 L 2.101562 -4.078125 L 2.101562 -0.351562 L 1.71875 -0.351562 Z M 1.71875 0 "/></g></g></g><g fill="#000000" fill-opacity="1"><g transform="translate(150.407076, 154.4208)"><g/></g></g><g fill="#000000" fill-opacity="1"><g transform="translate(153.125546, 154.4208)"><g><path d="M 2.304688 0.0390625 C 3.125 0.0390625 4.0625 0.0390625 4.0625 -1.15625 C 4.0625 -2.246094 1.007812 -2.269531 1.007812 -3.3125 C 1.007812 -3.777344 1.328125 -4.117188 2.304688 -4.117188 C 2.351562 -4.117188 3.28125 -4.078125 3.644531 -3.972656 L 3.644531 -3.558594 L 3.980469 -3.558594 L 3.980469 -4.339844 C 3.679688 -4.402344 2.847656 -4.515625 2.296875 -4.515625 C 1.425781 -4.515625 0.578125 -4.214844 0.578125 -3.3125 C 0.578125 -1.816406 3.628906 -1.855469 3.628906 -1.089844 C 3.628906 -0.351562 2.914062 -0.351562 2.304688 -0.351562 C 1.90625 -0.351562 1.40625 -0.398438 0.863281 -0.636719 L 0.863281 -0.976562 L 0.527344 -0.976562 L 0.527344 -0.316406 C 0.910156 -0.113281 1.585938 0.0390625 2.304688 0.0390625 Z M 2.304688 0.0390625 "/></g></g></g><g fill="#000000" fill-opacity="1"><g transform="translate(158.741556, 154.4208)"><g><path d="M 1.71875 0 L 2.90625 0 L 2.90625 -0.351562 L 2.53125 -0.351562 L 2.53125 -4.078125 L 3.859375 -4.078125 L 3.859375 -3.65625 L 4.191406 -3.65625 L 4.191406 -4.476562 L 0.40625 -4.476562 L 0.40625 -3.65625 L 0.742188 -3.65625 L 0.742188 -4.078125 L 2.101562 -4.078125 L 2.101562 -0.351562 L 1.71875 -0.351562 Z M 1.71875 0 "/></g></g></g><g fill="#000000" fill-opacity="1"><g transform="translate(164.365702, 154.4208)"><g><path d="M 2.6875 0.0390625 C 3.363281 0.0390625 4.558594 -0.03125 4.558594 -1.261719 L 4.558594 -4.117188 L 4.914062 -4.117188 L 4.914062 -4.476562 L 3.6875 -4.476562 L 3.6875 -4.117188 L 4.125 -4.117188 L 4.125 -1.359375 C 4.125 -0.351562 3.132812 -0.351562 2.6875 -0.351562 C 2.253906 -0.351562 1.277344 -0.351562 1.277344 -1.359375 L 1.277344 -4.117188 L 1.726562 -4.117188 L 1.726562 -4.476562 L 0.488281 -4.476562 L 0.488281 -4.117188 L 0.847656 -4.117188 L 0.847656 -1.261719 C 0.847656 -0.03125 2.035156 0.0390625 2.6875 0.0390625 Z M 2.6875 0.0390625 "/></g></g></g><g fill="#000000" fill-opacity="1"><g transform="translate(170.795628, 154.4208)"><g><path d="M 0.527344 0 L 2.785156 0 C 3.394531 0 4.394531 -0.269531 4.394531 -1.503906 L 4.394531 -2.9375 C 4.394531 -4.183594 3.394531 -4.476562 2.785156 -4.476562 L 0.527344 -4.476562 L 0.527344 -4.117188 L 0.9375 -4.117188 L 0.9375 -0.351562 L 0.527344 -0.351562 Z M 1.367188 -0.390625 L 1.367188 -4.078125 L 2.589844 -4.078125 C 2.808594 -4.078125 3.964844 -4.070312 3.964844 -2.9375 L 3.964844 -1.554688 C 3.964844 -0.382812 2.808594 -0.390625 2.589844 -0.390625 Z M 1.367188 -0.390625 "/></g></g></g><g fill="#000000" fill-opacity="1"><g transform="translate(176.745344, 154.4208)"><g><path d="M 0.527344 0 L 1.675781 0 L 1.675781 -0.351562 L 1.320312 -0.351562 L 1.320312 -4.117188 L 1.675781 -4.117188 L 1.675781 -4.476562 L 0.527344 -4.476562 L 0.527344 -4.117188 L 0.886719 -4.117188 L 0.886719 -0.351562 L 0.527344 -0.351562 Z M 0.527344 0 "/></g></g></g><g fill="#000000" fill-opacity="1"><g transform="translate(179.976585, 154.4208)"><g><path d="M 2.375 0.0390625 C 3.027344 0.0390625 4.214844 -0.0234375 4.214844 -1.253906 L 4.214844 -3.214844 C 4.214844 -4.3125 3.027344 -4.515625 2.375 -4.515625 C 1.726562 -4.515625 0.527344 -4.3125 0.527344 -3.214844 L 0.527344 -1.253906 C 0.527344 -0.0234375 1.726562 0.0390625 2.375 0.0390625 Z M 2.375 -0.351562 C 1.921875 -0.351562 0.960938 -0.351562 0.960938 -1.359375 L 0.960938 -3.15625 C 0.960938 -4.109375 2.132812 -4.117188 2.382812 -4.117188 C 2.613281 -4.117188 3.785156 -4.117188 3.785156 -3.15625 L 3.785156 -1.359375 C 3.785156 -0.351562 2.824219 -0.351562 2.375 -0.351562 Z M 2.375 -0.351562 "/></g></g></g><g fill="#000000" fill-opacity="1"><g transform="translate(185.747237, 154.4208)"><g><path d="M 2.304688 0.0390625 C 3.125 0.0390625 4.0625 0.0390625 4.0625 -1.15625 C 4.0625 -2.246094 1.007812 -2.269531 1.007812 -3.3125 C 1.007812 -3.777344 1.328125 -4.117188 2.304688 -4.117188 C 2.351562 -4.117188 3.28125 -4.078125 3.644531 -3.972656 L 3.644531 -3.558594 L 3.980469 -3.558594 L 3.980469 -4.339844 C 3.679688 -4.402344 2.847656 -4.515625 2.296875 -4.515625 C 1.425781 -4.515625 0.578125 -4.214844 0.578125 -3.3125 C 0.578125 -1.816406 3.628906 -1.855469 3.628906 -1.089844 C 3.628906 -0.351562 2.914062 -0.351562 2.304688 -0.351562 C 1.90625 -0.351562 1.40625 -0.398438 0.863281 -0.636719 L 0.863281 -0.976562 L 0.527344 -0.976562 L 0.527344 -0.316406 C 0.910156 -0.113281 1.585938 0.0390625 2.304688 0.0390625 Z M 2.304688 0.0390625 "/></g></g></g></svg>